<?xml version="1.0" encoding="UTF-8" standalone="no"?>
<!DOCTYPE svg PUBLIC "-//W3C//DTD SVG 1.1//EN"
 "http://www.w3.org/Graphics/SVG/1.1/DTD/svg11.dtd">
<!-- Generated by graphviz version 2.40.1 (20161225.0304)
 -->
<!-- Title: vote_state Pages: 1 -->
<svg width="378pt" height="375pt"
 viewBox="0.00 0.00 377.50 375.00" xmlns="http://www.w3.org/2000/svg" xmlns:xlink="http://www.w3.org/1999/xlink">
<g id="graph0" class="graph" transform="scale(1 1) rotate(0) translate(4 371)">
<title>vote_state</title>
<!-- Node1 -->
<g id="node1" class="node">
<title>Node1</title>
<g id="a_node1"><a xlink:title=" ">
<polygon fill="#bfbfbf" stroke="#000000" points="127.5,-.5 127.5,-123.5 259.5,-123.5 259.5,-.5 127.5,-.5"/>
<text text-anchor="middle" x="193.5" y="-111.5" font-family="Helvetica,sans-Serif" font-size="10.00" fill="#000000">vote_state</text>
<polyline fill="none" stroke="#000000" points="127.5,-104.5 259.5,-104.5 "/>
<text text-anchor="start" x="135.5" y="-92.5" font-family="Helvetica,sans-Serif" font-size="10.00" fill="#000000">+ authorized_voter</text>
<text text-anchor="start" x="135.5" y="-81.5" font-family="Helvetica,sans-Serif" font-size="10.00" fill="#000000">+ authorized_voter_epoch</text>
<text text-anchor="start" x="135.5" y="-70.5" font-family="Helvetica,sans-Serif" font-size="10.00" fill="#000000">+ authorized_withdrawer</text>
<text text-anchor="start" x="135.5" y="-59.5" font-family="Helvetica,sans-Serif" font-size="10.00" fill="#000000">+ commission</text>
<text text-anchor="start" x="135.5" y="-48.5" font-family="Helvetica,sans-Serif" font-size="10.00" fill="#000000">+ node_pubkey</text>
<text text-anchor="start" x="135.5" y="-37.5" font-family="Helvetica,sans-Serif" font-size="10.00" fill="#000000">+ prior_voters</text>
<text text-anchor="start" x="135.5" y="-26.5" font-family="Helvetica,sans-Serif" font-size="10.00" fill="#000000">+ root_slot</text>
<polyline fill="none" stroke="#000000" points="127.5,-19.5 259.5,-19.5 "/>
<text text-anchor="middle" x="193.5" y="-7.5" font-family="Helvetica,sans-Serif" font-size="10.00" fill="#000000"> </text>
</a>
</g>
</g>
<!-- Node2 -->
<g id="node2" class="node">
<title>Node2</title>
<g id="a_node2"><a xlink:title=" ">
<polygon fill="none" stroke="#bfbfbf" points="0,-171.5 0,-250.5 129,-250.5 129,-171.5 0,-171.5"/>
<text text-anchor="start" x="8" y="-238.5" font-family="Helvetica,sans-Serif" font-size="10.00" fill="#000000">std::vector&lt; std::tuple</text>
<text text-anchor="start" x="8" y="-227.5" font-family="Helvetica,sans-Serif" font-size="10.00" fill="#000000">&lt; std::uint64_t, std::</text>
<text text-anchor="middle" x="64.5" y="-216.5" font-family="Helvetica,sans-Serif" font-size="10.00" fill="#000000">uint64_t, std::uint64_t &gt; &gt;</text>
<polyline fill="none" stroke="#bfbfbf" points="0,-209.5 129,-209.5 "/>
<text text-anchor="start" x="8" y="-197.5" font-family="Helvetica,sans-Serif" font-size="10.00" fill="#000000">+ elements</text>
<polyline fill="none" stroke="#bfbfbf" points="0,-190.5 129,-190.5 "/>
<text text-anchor="middle" x="64.5" y="-178.5" font-family="Helvetica,sans-Serif" font-size="10.00" fill="#000000"> </text>
</a>
</g>
</g>
<!-- Node2&#45;&gt;Node1 -->
<g id="edge1" class="edge">
<title>Node2&#45;&gt;Node1</title>
<path fill="none" stroke="#404040" d="M94.4618,-171.4672C102.1313,-161.6982 110.4816,-151.3553 118.5,-142 121.1831,-138.8696 123.9489,-135.6963 126.7643,-132.5098"/>
<polygon fill="none" stroke="#404040" points="126.8042,-132.4652 127.8213,-125.3262 134.8023,-123.5193 133.7852,-130.6583 126.8042,-132.4652"/>
<text text-anchor="middle" x="154" y="-145" font-family="Helvetica,sans-Serif" font-size="10.00" fill="#000000"> +epoch_credits</text>
</g>
<!-- Node3 -->
<g id="node3" class="node">
<title>Node3</title>
<g id="a_node3"><a xlink:href="../../dc/d1b/structblock__timestamp.html" target="_top" xlink:title=" ">
<polygon fill="none" stroke="#000000" points="147.5,-177 147.5,-245 239.5,-245 239.5,-177 147.5,-177"/>
<text text-anchor="middle" x="193.5" y="-233" font-family="Helvetica,sans-Serif" font-size="10.00" fill="#000000">block_timestamp</text>
<polyline fill="none" stroke="#000000" points="147.5,-226 239.5,-226 "/>
<text text-anchor="start" x="155.5" y="-214" font-family="Helvetica,sans-Serif" font-size="10.00" fill="#000000">+ slot</text>
<text text-anchor="start" x="155.5" y="-203" font-family="Helvetica,sans-Serif" font-size="10.00" fill="#000000">+ timestamp</text>
<polyline fill="none" stroke="#000000" points="147.5,-196 239.5,-196 "/>
<text text-anchor="middle" x="193.5" y="-184" font-family="Helvetica,sans-Serif" font-size="10.00" fill="#000000"> </text>
</a>
</g>
</g>
<!-- Node3&#45;&gt;Node1 -->
<g id="edge2" class="edge">
<title>Node3&#45;&gt;Node1</title>
<path fill="none" stroke="#404040" d="M193.5,-176.8164C193.5,-164.4657 193.5,-149.9996 193.5,-135.5794"/>
<polygon fill="none" stroke="#404040" points="193.5001,-135.5248 189.5,-129.5248 193.5,-123.5248 197.5,-129.5248 193.5001,-135.5248"/>
<text text-anchor="middle" x="231.5" y="-145" font-family="Helvetica,sans-Serif" font-size="10.00" fill="#000000"> +last_timestamp</text>
</g>
<!-- Node4 -->
<g id="node4" class="node">
<title>Node4</title>
<g id="a_node4"><a xlink:title=" ">
<polygon fill="none" stroke="#bfbfbf" points="257.5,-182.5 257.5,-239.5 369.5,-239.5 369.5,-182.5 257.5,-182.5"/>
<text text-anchor="middle" x="313.5" y="-227.5" font-family="Helvetica,sans-Serif" font-size="10.00" fill="#000000">std::deque&lt; lockout &gt;</text>
<polyline fill="none" stroke="#bfbfbf" points="257.5,-220.5 369.5,-220.5 "/>
<text text-anchor="middle" x="313.5" y="-208.5" font-family="Helvetica,sans-Serif" font-size="10.00" fill="#000000"> </text>
<polyline fill="none" stroke="#bfbfbf" points="257.5,-201.5 369.5,-201.5 "/>
<text text-anchor="middle" x="313.5" y="-189.5" font-family="Helvetica,sans-Serif" font-size="10.00" fill="#000000"> </text>
</a>
</g>
</g>
<!-- Node4&#45;&gt;Node1 -->
<g id="edge3" class="edge">
<title>Node4&#45;&gt;Node1</title>
<path fill="none" stroke="#404040" d="M299.1118,-182.4138C292.1047,-169.5663 283.1204,-154.5146 273.5,-142 271.2386,-139.0583 268.8753,-136.1151 266.4376,-133.1867"/>
<polygon fill="none" stroke="#404040" points="266.2693,-132.9916 259.3216,-131.0605 258.432,-123.9044 265.3797,-125.8356 266.2693,-132.9916"/>
<text text-anchor="middle" x="297" y="-145" font-family="Helvetica,sans-Serif" font-size="10.00" fill="#000000"> +votes</text>
</g>
<!-- Node5 -->
<g id="node5" class="node">
<title>Node5</title>
<g id="a_node5"><a xlink:href="../../d2/d0d/structlockout.html" target="_top" xlink:title=" ">
<polygon fill="none" stroke="#000000" points="258.5,-298.5 258.5,-366.5 368.5,-366.5 368.5,-298.5 258.5,-298.5"/>
<text text-anchor="middle" x="313.5" y="-354.5" font-family="Helvetica,sans-Serif" font-size="10.00" fill="#000000">lockout</text>
<polyline fill="none" stroke="#000000" points="258.5,-347.5 368.5,-347.5 "/>
<text text-anchor="start" x="266.5" y="-335.5" font-family="Helvetica,sans-Serif" font-size="10.00" fill="#000000">+ confirmation_count</text>
<text text-anchor="start" x="266.5" y="-324.5" font-family="Helvetica,sans-Serif" font-size="10.00" fill="#000000">+ slot</text>
<polyline fill="none" stroke="#000000" points="258.5,-317.5 368.5,-317.5 "/>
<text text-anchor="middle" x="313.5" y="-305.5" font-family="Helvetica,sans-Serif" font-size="10.00" fill="#000000"> </text>
</a>
</g>
</g>
<!-- Node5&#45;&gt;Node4 -->
<g id="edge4" class="edge">
<title>Node5&#45;&gt;Node4</title>
<path fill="none" stroke="#404040" d="M313.5,-298.3321C313.5,-283.8557 313.5,-266.8707 313.5,-251.7473"/>
<polygon fill="none" stroke="#404040" points="313.5001,-251.5775 309.5,-245.5776 313.5,-239.5775 317.5,-245.5775 313.5001,-251.5775"/>
<text text-anchor="middle" x="338.5" y="-272" font-family="Helvetica,sans-Serif" font-size="10.00" fill="#000000"> +elements</text>
</g>
</g>
</svg>
