<?xml version="1.0" encoding="UTF-8" standalone="no"?>
<!DOCTYPE svg PUBLIC "-//W3C//DTD SVG 1.1//EN"
 "http://www.w3.org/Graphics/SVG/1.1/DTD/svg11.dtd">
<!-- Generated by graphviz version 2.40.1 (20161225.0304)
 -->
<!-- Title: sexp.cpp Pages: 1 -->
<svg width="558pt" height="140pt"
 viewBox="0.00 0.00 557.50 140.00" xmlns="http://www.w3.org/2000/svg" xmlns:xlink="http://www.w3.org/1999/xlink">
<g id="graph0" class="graph" transform="scale(1 1) rotate(0) translate(4 136)">
<title>sexp.cpp</title>
<!-- Node1 -->
<g id="node1" class="node">
<title>Node1</title>
<g id="a_node1"><a xlink:title=" ">
<polygon fill="#bfbfbf" stroke="#000000" points="291.5,-112.5 291.5,-131.5 348.5,-131.5 348.5,-112.5 291.5,-112.5"/>
<text text-anchor="middle" x="320" y="-119.5" font-family="Helvetica,sans-Serif" font-size="10.00" fill="#000000">sexp.cpp</text>
</a>
</g>
</g>
<!-- Node2 -->
<g id="node2" class="node">
<title>Node2</title>
<g id="a_node2"><a xlink:href="../../d0/d53/sexp_8hpp.html" target="_top" xlink:title=" ">
<polygon fill="none" stroke="#000000" points="15,-56.5 15,-75.5 151,-75.5 151,-56.5 15,-56.5"/>
<text text-anchor="middle" x="83" y="-63.5" font-family="Helvetica,sans-Serif" font-size="10.00" fill="#000000">nil/mina/auxproof/sexp.hpp</text>
</a>
</g>
</g>
<!-- Node1&#45;&gt;Node2 -->
<g id="edge1" class="edge">
<title>Node1&#45;&gt;Node2</title>
<path fill="none" stroke="#191970" d="M291.4123,-115.2451C252.3329,-106.0112 181.6047,-89.299 133.4903,-77.9302"/>
<polygon fill="#191970" stroke="#191970" points="134.1229,-74.4834 123.586,-75.5899 132.5131,-81.2958 134.1229,-74.4834"/>
</g>
<!-- Node6 -->
<g id="node6" class="node">
<title>Node6</title>
<g id="a_node6"><a xlink:title=" ">
<polygon fill="none" stroke="#bfbfbf" points="169.5,-56.5 169.5,-75.5 214.5,-75.5 214.5,-56.5 169.5,-56.5"/>
<text text-anchor="middle" x="192" y="-63.5" font-family="Helvetica,sans-Serif" font-size="10.00" fill="#000000">cctype</text>
</a>
</g>
</g>
<!-- Node1&#45;&gt;Node6 -->
<g id="edge5" class="edge">
<title>Node1&#45;&gt;Node6</title>
<path fill="none" stroke="#191970" d="M297.996,-112.3733C277.3565,-103.3435 246.2842,-89.7494 223.1111,-79.6111"/>
<polygon fill="#191970" stroke="#191970" points="224.2813,-76.3028 213.7169,-75.5011 221.4755,-82.7159 224.2813,-76.3028"/>
</g>
<!-- Node7 -->
<g id="node7" class="node">
<title>Node7</title>
<g id="a_node7"><a xlink:title=" ">
<polygon fill="none" stroke="#bfbfbf" points="233,-56.5 233,-75.5 273,-75.5 273,-56.5 233,-56.5"/>
<text text-anchor="middle" x="253" y="-63.5" font-family="Helvetica,sans-Serif" font-size="10.00" fill="#000000">stack</text>
</a>
</g>
</g>
<!-- Node1&#45;&gt;Node7 -->
<g id="edge6" class="edge">
<title>Node1&#45;&gt;Node7</title>
<path fill="none" stroke="#191970" d="M308.3295,-112.2455C298.4339,-103.9746 284.0373,-91.9416 272.4099,-82.2232"/>
<polygon fill="#191970" stroke="#191970" points="274.4542,-79.3703 264.5368,-75.6427 269.965,-84.7413 274.4542,-79.3703"/>
</g>
<!-- Node8 -->
<g id="node8" class="node">
<title>Node8</title>
<g id="a_node8"><a xlink:title=" ">
<polygon fill="none" stroke="#bfbfbf" points="291,-56.5 291,-75.5 349,-75.5 349,-56.5 291,-56.5"/>
<text text-anchor="middle" x="320" y="-63.5" font-family="Helvetica,sans-Serif" font-size="10.00" fill="#000000">algorithm</text>
</a>
</g>
</g>
<!-- Node1&#45;&gt;Node8 -->
<g id="edge7" class="edge">
<title>Node1&#45;&gt;Node8</title>
<path fill="none" stroke="#191970" d="M320,-112.2455C320,-104.9382 320,-94.6944 320,-85.7046"/>
<polygon fill="#191970" stroke="#191970" points="323.5001,-85.6426 320,-75.6427 316.5001,-85.6427 323.5001,-85.6426"/>
</g>
<!-- Node9 -->
<g id="node9" class="node">
<title>Node9</title>
<g id="a_node9"><a xlink:title=" ">
<polygon fill="none" stroke="#bfbfbf" points="367,-56.5 367,-75.5 419,-75.5 419,-56.5 367,-56.5"/>
<text text-anchor="middle" x="393" y="-63.5" font-family="Helvetica,sans-Serif" font-size="10.00" fill="#000000">sstream</text>
</a>
</g>
</g>
<!-- Node1&#45;&gt;Node9 -->
<g id="edge8" class="edge">
<title>Node1&#45;&gt;Node9</title>
<path fill="none" stroke="#191970" d="M332.7156,-112.2455C343.602,-103.8943 359.4883,-91.7076 372.22,-81.9408"/>
<polygon fill="#191970" stroke="#191970" points="374.6261,-84.5063 380.4301,-75.6427 370.3654,-78.9523 374.6261,-84.5063"/>
</g>
<!-- Node10 -->
<g id="node10" class="node">
<title>Node10</title>
<g id="a_node10"><a xlink:title=" ">
<polygon fill="none" stroke="#bfbfbf" points="437.5,-56.5 437.5,-75.5 476.5,-75.5 476.5,-56.5 437.5,-56.5"/>
<text text-anchor="middle" x="457" y="-63.5" font-family="Helvetica,sans-Serif" font-size="10.00" fill="#000000">array</text>
</a>
</g>
</g>
<!-- Node1&#45;&gt;Node10 -->
<g id="edge9" class="edge">
<title>Node1&#45;&gt;Node10</title>
<path fill="none" stroke="#191970" d="M343.5511,-112.3733C366.9197,-102.8211 402.7839,-88.1613 427.9169,-77.888"/>
<polygon fill="#191970" stroke="#191970" points="429.3718,-81.0745 437.304,-74.0509 426.7232,-74.5949 429.3718,-81.0745"/>
</g>
<!-- Node11 -->
<g id="node11" class="node">
<title>Node11</title>
<g id="a_node11"><a xlink:title=" ">
<polygon fill="none" stroke="#bfbfbf" points="494.5,-56.5 494.5,-75.5 549.5,-75.5 549.5,-56.5 494.5,-56.5"/>
<text text-anchor="middle" x="522" y="-63.5" font-family="Helvetica,sans-Serif" font-size="10.00" fill="#000000">iostream</text>
</a>
</g>
</g>
<!-- Node1&#45;&gt;Node11 -->
<g id="edge10" class="edge">
<title>Node1&#45;&gt;Node11</title>
<path fill="none" stroke="#191970" d="M348.7906,-114.0277C379.957,-105.3963 431.3942,-91.1473 484.5435,-76.4031"/>
<polygon fill="#191970" stroke="#191970" points="485.7828,-79.6915 494.4831,-73.6455 483.9114,-72.9463 485.7828,-79.6915"/>
</g>
<!-- Node3 -->
<g id="node3" class="node">
<title>Node3</title>
<g id="a_node3"><a xlink:title=" ">
<polygon fill="none" stroke="#bfbfbf" points="0,-.5 0,-19.5 44,-19.5 44,-.5 0,-.5"/>
<text text-anchor="middle" x="22" y="-7.5" font-family="Helvetica,sans-Serif" font-size="10.00" fill="#000000">vector</text>
</a>
</g>
</g>
<!-- Node2&#45;&gt;Node3 -->
<g id="edge2" class="edge">
<title>Node2&#45;&gt;Node3</title>
<path fill="none" stroke="#191970" d="M72.3746,-56.2455C63.4527,-48.0549 50.512,-36.1749 39.9808,-26.5069"/>
<polygon fill="#191970" stroke="#191970" points="42.2371,-23.8271 32.5036,-19.6427 37.5032,-28.9837 42.2371,-23.8271"/>
</g>
<!-- Node4 -->
<g id="node4" class="node">
<title>Node4</title>
<g id="a_node4"><a xlink:title=" ">
<polygon fill="none" stroke="#bfbfbf" points="62.5,-.5 62.5,-19.5 103.5,-19.5 103.5,-.5 62.5,-.5"/>
<text text-anchor="middle" x="83" y="-7.5" font-family="Helvetica,sans-Serif" font-size="10.00" fill="#000000">string</text>
</a>
</g>
</g>
<!-- Node2&#45;&gt;Node4 -->
<g id="edge3" class="edge">
<title>Node2&#45;&gt;Node4</title>
<path fill="none" stroke="#191970" d="M83,-56.2455C83,-48.9382 83,-38.6944 83,-29.7046"/>
<polygon fill="#191970" stroke="#191970" points="86.5001,-29.6426 83,-19.6427 79.5001,-29.6427 86.5001,-29.6426"/>
</g>
<!-- Node5 -->
<g id="node5" class="node">
<title>Node5</title>
<g id="a_node5"><a xlink:title=" ">
<polygon fill="none" stroke="#bfbfbf" points="121.5,-.5 121.5,-19.5 166.5,-19.5 166.5,-.5 121.5,-.5"/>
<text text-anchor="middle" x="144" y="-7.5" font-family="Helvetica,sans-Serif" font-size="10.00" fill="#000000">cstdint</text>
</a>
</g>
</g>
<!-- Node2&#45;&gt;Node5 -->
<g id="edge4" class="edge">
<title>Node2&#45;&gt;Node5</title>
<path fill="none" stroke="#191970" d="M93.6254,-56.2455C102.5473,-48.0549 115.488,-36.1749 126.0192,-26.5069"/>
<polygon fill="#191970" stroke="#191970" points="128.4968,-28.9837 133.4964,-19.6427 123.7629,-23.8271 128.4968,-28.9837"/>
</g>
</g>
</svg>
