<?xml version="1.0" encoding="UTF-8" standalone="no"?>
<!DOCTYPE svg PUBLIC "-//W3C//DTD SVG 1.1//EN"
 "http://www.w3.org/Graphics/SVG/1.1/DTD/svg11.dtd">
<!-- Generated by graphviz version 2.40.1 (20161225.0304)
 -->
<!-- Title: nil::sexp_argument_iterator Pages: 1 -->
<svg width="280pt" height="591pt"
 viewBox="0.00 0.00 280.00 591.00" xmlns="http://www.w3.org/2000/svg" xmlns:xlink="http://www.w3.org/1999/xlink">
<g id="graph0" class="graph" transform="scale(1 1) rotate(0) translate(4 587)">
<title>nil::sexp_argument_iterator</title>
<!-- Node1 -->
<g id="node1" class="node">
<title>Node1</title>
<g id="a_node1"><a xlink:title=" ">
<polygon fill="#bfbfbf" stroke="#000000" points="0,-.5 0,-134.5 137,-134.5 137,-.5 0,-.5"/>
<text text-anchor="start" x="8" y="-122.5" font-family="Helvetica,sans-Serif" font-size="10.00" fill="#000000">nil::sexp_argument</text>
<text text-anchor="middle" x="68.5" y="-111.5" font-family="Helvetica,sans-Serif" font-size="10.00" fill="#000000">_iterator</text>
<polyline fill="none" stroke="#000000" points="0,-104.5 137,-104.5 "/>
<text text-anchor="middle" x="68.5" y="-92.5" font-family="Helvetica,sans-Serif" font-size="10.00" fill="#000000"> </text>
<polyline fill="none" stroke="#000000" points="0,-85.5 137,-85.5 "/>
<text text-anchor="start" x="8" y="-73.5" font-family="Helvetica,sans-Serif" font-size="10.00" fill="#000000">+ begin()</text>
<text text-anchor="start" x="8" y="-62.5" font-family="Helvetica,sans-Serif" font-size="10.00" fill="#000000">+ begin()</text>
<text text-anchor="start" x="8" y="-51.5" font-family="Helvetica,sans-Serif" font-size="10.00" fill="#000000">+ empty()</text>
<text text-anchor="start" x="8" y="-40.5" font-family="Helvetica,sans-Serif" font-size="10.00" fill="#000000">+ end()</text>
<text text-anchor="start" x="8" y="-29.5" font-family="Helvetica,sans-Serif" font-size="10.00" fill="#000000">+ end()</text>
<text text-anchor="start" x="8" y="-18.5" font-family="Helvetica,sans-Serif" font-size="10.00" fill="#000000">+ sexp_argument_iterator()</text>
<text text-anchor="start" x="8" y="-7.5" font-family="Helvetica,sans-Serif" font-size="10.00" fill="#000000">+ size()</text>
</a>
</g>
</g>
<!-- Node2 -->
<g id="node2" class="node">
<title>Node2</title>
<g id="a_node2"><a xlink:href="../../df/da3/structnil_1_1sexp.html" target="_top" xlink:title=" ">
<polygon fill="none" stroke="#000000" points="76,-182.5 76,-371.5 205,-371.5 205,-182.5 76,-182.5"/>
<text text-anchor="middle" x="140.5" y="-359.5" font-family="Helvetica,sans-Serif" font-size="10.00" fill="#000000">nil::sexp</text>
<polyline fill="none" stroke="#000000" points="76,-352.5 205,-352.5 "/>
<text text-anchor="start" x="84" y="-340.5" font-family="Helvetica,sans-Serif" font-size="10.00" fill="#000000">+ kind</text>
<text text-anchor="start" x="84" y="-329.5" font-family="Helvetica,sans-Serif" font-size="10.00" fill="#000000">+ value</text>
<polyline fill="none" stroke="#000000" points="76,-322.5 205,-322.5 "/>
<text text-anchor="start" x="84" y="-310.5" font-family="Helvetica,sans-Serif" font-size="10.00" fill="#000000">+ add_child()</text>
<text text-anchor="start" x="84" y="-299.5" font-family="Helvetica,sans-Serif" font-size="10.00" fill="#000000">+ add_child()</text>
<text text-anchor="start" x="84" y="-288.5" font-family="Helvetica,sans-Serif" font-size="10.00" fill="#000000">+ add_child_unescaped()</text>
<text text-anchor="start" x="84" y="-277.5" font-family="Helvetica,sans-Serif" font-size="10.00" fill="#000000">+ add_expression()</text>
<text text-anchor="start" x="84" y="-266.5" font-family="Helvetica,sans-Serif" font-size="10.00" fill="#000000">+ arguments()</text>
<text text-anchor="start" x="84" y="-255.5" font-family="Helvetica,sans-Serif" font-size="10.00" fill="#000000">+ child_count()</text>
<text text-anchor="start" x="84" y="-244.5" font-family="Helvetica,sans-Serif" font-size="10.00" fill="#000000">+ create_path()</text>
<text text-anchor="start" x="84" y="-233.5" font-family="Helvetica,sans-Serif" font-size="10.00" fill="#000000">+ create_path()</text>
<text text-anchor="start" x="84" y="-222.5" font-family="Helvetica,sans-Serif" font-size="10.00" fill="#000000">+ equal()</text>
<text text-anchor="start" x="84" y="-211.5" font-family="Helvetica,sans-Serif" font-size="10.00" fill="#000000">+ get_child()</text>
<text text-anchor="start" x="84" y="-200.5" font-family="Helvetica,sans-Serif" font-size="10.00" fill="#000000">and 9 more...</text>
<text text-anchor="start" x="84" y="-189.5" font-family="Helvetica,sans-Serif" font-size="10.00" fill="#000000">+ unescaped()</text>
</a>
</g>
</g>
<!-- Node2&#45;&gt;Node1 -->
<g id="edge1" class="edge">
<title>Node2&#45;&gt;Node1</title>
<path fill="none" stroke="#404040" d="M96.0537,-182.3142C93.7021,-176.1688 91.492,-170.0289 89.5,-164 87.6152,-158.2957 85.853,-152.345 84.2151,-146.3224"/>
<polygon fill="none" stroke="#404040" points="84.214,-146.3178 78.843,-141.506 81.2189,-134.6976 86.5898,-139.5093 84.214,-146.3178"/>
<text text-anchor="middle" x="104" y="-156" font-family="Helvetica,sans-Serif" font-size="10.00" fill="#000000"> +expr</text>
</g>
<!-- Node3 -->
<g id="node3" class="node">
<title>Node3</title>
<g id="a_node3"><a xlink:title=" ">
<polygon fill="none" stroke="#bfbfbf" points="155,-39 155,-96 272,-96 272,-39 155,-39"/>
<text text-anchor="middle" x="213.5" y="-84" font-family="Helvetica,sans-Serif" font-size="10.00" fill="#000000">std::vector&lt; nil::sexp &gt;</text>
<polyline fill="none" stroke="#bfbfbf" points="155,-77 272,-77 "/>
<text text-anchor="middle" x="213.5" y="-65" font-family="Helvetica,sans-Serif" font-size="10.00" fill="#000000"> </text>
<polyline fill="none" stroke="#bfbfbf" points="155,-58 272,-58 "/>
<text text-anchor="middle" x="213.5" y="-46" font-family="Helvetica,sans-Serif" font-size="10.00" fill="#000000"> </text>
</a>
</g>
</g>
<!-- Node2&#45;&gt;Node3 -->
<g id="edge3" class="edge">
<title>Node2&#45;&gt;Node3</title>
<path fill="none" stroke="#404040" d="M130.6492,-182.2638C131.8214,-172.1943 133.9797,-162.259 137.5,-153 141.7072,-141.9342 158.4783,-122.6323 175.1989,-105.1652"/>
<polygon fill="none" stroke="#404040" points="175.5032,-104.8525 176.8203,-97.7627 183.8713,-96.2516 182.5542,-103.3414 175.5032,-104.8525"/>
<text text-anchor="middle" x="162.5" y="-156" font-family="Helvetica,sans-Serif" font-size="10.00" fill="#000000"> +elements</text>
</g>
<!-- Node3&#45;&gt;Node2 -->
<g id="edge2" class="edge">
<title>Node3&#45;&gt;Node2</title>
<path fill="none" stroke="#404040" d="M208.5173,-96.2035C204.7694,-115.6163 198.9958,-141.6841 191.5,-164 190.7418,-166.2571 189.954,-168.5302 189.1404,-170.8136"/>
<polygon fill="none" stroke="#404040" points="189.0556,-171.0421 190.7156,-178.0595 184.8765,-182.2909 183.2164,-175.2735 189.0556,-171.0421"/>
<text text-anchor="middle" x="202" y="-156" font-family="Helvetica,sans-Serif" font-size="10.00" fill="#000000"> +e</text>
</g>
<!-- Node4 -->
<g id="node4" class="node">
<title>Node4</title>
<g id="a_node4"><a xlink:title=" ">
<polygon fill="none" stroke="#bfbfbf" points="110.5,-419.5 110.5,-476.5 170.5,-476.5 170.5,-419.5 110.5,-419.5"/>
<text text-anchor="middle" x="140.5" y="-464.5" font-family="Helvetica,sans-Serif" font-size="10.00" fill="#000000">std::string</text>
<polyline fill="none" stroke="#bfbfbf" points="110.5,-457.5 170.5,-457.5 "/>
<text text-anchor="middle" x="140.5" y="-445.5" font-family="Helvetica,sans-Serif" font-size="10.00" fill="#000000"> </text>
<polyline fill="none" stroke="#bfbfbf" points="110.5,-438.5 170.5,-438.5 "/>
<text text-anchor="middle" x="140.5" y="-426.5" font-family="Helvetica,sans-Serif" font-size="10.00" fill="#000000"> </text>
</a>
</g>
</g>
<!-- Node4&#45;&gt;Node2 -->
<g id="edge4" class="edge">
<title>Node4&#45;&gt;Node2</title>
<path fill="none" stroke="#404040" d="M140.5,-419.3784C140.5,-409.1146 140.5,-396.8493 140.5,-383.8829"/>
<polygon fill="none" stroke="#404040" points="140.5001,-383.8152 136.5,-377.8152 140.5,-371.8152 144.5,-377.8152 140.5001,-383.8152"/>
<text text-anchor="middle" x="150.5" y="-393" font-family="Helvetica,sans-Serif" font-size="10.00" fill="#000000"> +str</text>
</g>
<!-- Node5 -->
<g id="node5" class="node">
<title>Node5</title>
<g id="a_node5"><a xlink:title=" ">
<polygon fill="none" stroke="#bfbfbf" points="93,-514.5 93,-582.5 188,-582.5 188,-514.5 93,-514.5"/>
<text text-anchor="start" x="101" y="-570.5" font-family="Helvetica,sans-Serif" font-size="10.00" fill="#000000">std::basic_string&lt;</text>
<text text-anchor="middle" x="140.5" y="-559.5" font-family="Helvetica,sans-Serif" font-size="10.00" fill="#000000"> Char &gt;</text>
<polyline fill="none" stroke="#bfbfbf" points="93,-552.5 188,-552.5 "/>
<text text-anchor="middle" x="140.5" y="-540.5" font-family="Helvetica,sans-Serif" font-size="10.00" fill="#000000"> </text>
<polyline fill="none" stroke="#bfbfbf" points="93,-533.5 188,-533.5 "/>
<text text-anchor="middle" x="140.5" y="-521.5" font-family="Helvetica,sans-Serif" font-size="10.00" fill="#000000"> </text>
</a>
</g>
</g>
<!-- Node5&#45;&gt;Node4 -->
<g id="edge5" class="edge">
<title>Node5&#45;&gt;Node4</title>
<path fill="none" stroke="#191970" d="M140.5,-504.4301C140.5,-495.0073 140.5,-485.2901 140.5,-476.6312"/>
<polygon fill="none" stroke="#191970" points="137.0001,-504.4752 140.5,-514.4753 144.0001,-504.4753 137.0001,-504.4752"/>
</g>
</g>
</svg>
