<?xml version="1.0" encoding="UTF-8" standalone="no"?>
<!DOCTYPE svg PUBLIC "-//W3C//DTD SVG 1.1//EN"
 "http://www.w3.org/Graphics/SVG/1.1/DTD/svg11.dtd">
<!-- Generated by graphviz version 2.40.1 (20161225.0304)
 -->
<!-- Title: main.cpp Pages: 1 -->
<svg width="1408pt" height="95pt"
 viewBox="0.00 0.00 1407.50 95.00" xmlns="http://www.w3.org/2000/svg" xmlns:xlink="http://www.w3.org/1999/xlink">
<g id="graph0" class="graph" transform="scale(1 1) rotate(0) translate(4 91)">
<title>main.cpp</title>
<!-- Node1 -->
<g id="node1" class="node">
<title>Node1</title>
<g id="a_node1"><a xlink:title=" ">
<polygon fill="#bfbfbf" stroke="#000000" points="650,-67.5 650,-86.5 707,-86.5 707,-67.5 650,-67.5"/>
<text text-anchor="middle" x="678.5" y="-74.5" font-family="Helvetica,sans-Serif" font-size="10.00" fill="#000000">main.cpp</text>
</a>
</g>
</g>
<!-- Node2 -->
<g id="node2" class="node">
<title>Node2</title>
<g id="a_node2"><a xlink:title=" ">
<polygon fill="none" stroke="#bfbfbf" points="0,-6 0,-25 55,-25 55,-6 0,-6"/>
<text text-anchor="middle" x="27.5" y="-13" font-family="Helvetica,sans-Serif" font-size="10.00" fill="#000000">iostream</text>
</a>
</g>
</g>
<!-- Node1&#45;&gt;Node2 -->
<g id="edge1" class="edge">
<title>Node1&#45;&gt;Node2</title>
<path fill="none" stroke="#191970" d="M649.7273,-76.1105C543.9618,-72.6452 176.9733,-58.8425 63.5,-31 61.0135,-30.3899 58.4802,-29.6243 55.9677,-28.7621"/>
<polygon fill="#191970" stroke="#191970" points="57.111,-25.4514 46.5226,-25.0827 54.57,-31.9739 57.111,-25.4514"/>
</g>
<!-- Node3 -->
<g id="node3" class="node">
<title>Node3</title>
<g id="a_node3"><a xlink:title=" ">
<polygon fill="none" stroke="#bfbfbf" points="73,-6 73,-25 200,-25 200,-6 73,-6"/>
<text text-anchor="middle" x="136.5" y="-13" font-family="Helvetica,sans-Serif" font-size="10.00" fill="#000000">boost/circular_buffer.hpp</text>
</a>
</g>
</g>
<!-- Node1&#45;&gt;Node3 -->
<g id="edge2" class="edge">
<title>Node1&#45;&gt;Node3</title>
<path fill="none" stroke="#191970" d="M649.8098,-75.3036C576.2865,-70.7147 375.2474,-56.6431 209.5,-31 202.3699,-29.8969 194.8875,-28.5402 187.5435,-27.0926"/>
<polygon fill="#191970" stroke="#191970" points="188.1585,-23.646 177.6608,-25.0773 186.7598,-30.5049 188.1585,-23.646"/>
</g>
<!-- Node4 -->
<g id="node4" class="node">
<title>Node4</title>
<g id="a_node4"><a xlink:title=" ">
<polygon fill="none" stroke="#bfbfbf" points="218.5,-6 218.5,-25 316.5,-25 316.5,-6 218.5,-6"/>
<text text-anchor="middle" x="267.5" y="-13" font-family="Helvetica,sans-Serif" font-size="10.00" fill="#000000">boost/optional.hpp</text>
</a>
</g>
</g>
<!-- Node1&#45;&gt;Node4 -->
<g id="edge3" class="edge">
<title>Node1&#45;&gt;Node4</title>
<path fill="none" stroke="#191970" d="M649.9246,-74.5623C589.5913,-69.1342 444.9357,-54.6344 325.5,-31 320.4532,-30.0013 315.1964,-28.8115 309.9981,-27.5415"/>
<polygon fill="#191970" stroke="#191970" points="310.6992,-24.1083 300.1444,-25.0292 308.9697,-30.8913 310.6992,-24.1083"/>
</g>
<!-- Node5 -->
<g id="node5" class="node">
<title>Node5</title>
<g id="a_node5"><a xlink:title=" ">
<polygon fill="none" stroke="#bfbfbf" points="334.5,-6 334.5,-25 442.5,-25 442.5,-6 334.5,-6"/>
<text text-anchor="middle" x="388.5" y="-13" font-family="Helvetica,sans-Serif" font-size="10.00" fill="#000000">boost/filesystem.hpp</text>
</a>
</g>
</g>
<!-- Node1&#45;&gt;Node5 -->
<g id="edge4" class="edge">
<title>Node1&#45;&gt;Node5</title>
<path fill="none" stroke="#191970" d="M649.752,-71.5693C606.5878,-63.326 522.5179,-46.9248 451.5,-31 446.4769,-29.8736 441.2394,-28.6554 436.0241,-27.4141"/>
<polygon fill="#191970" stroke="#191970" points="436.6264,-23.959 426.0844,-25.0164 434.9848,-30.7638 436.6264,-23.959"/>
</g>
<!-- Node6 -->
<g id="node6" class="node">
<title>Node6</title>
<g id="a_node6"><a xlink:title=" ">
<polygon fill="none" stroke="#bfbfbf" points="460.5,-6 460.5,-25 598.5,-25 598.5,-6 460.5,-6"/>
<text text-anchor="middle" x="529.5" y="-13" font-family="Helvetica,sans-Serif" font-size="10.00" fill="#000000">boost/program_options.hpp</text>
</a>
</g>
</g>
<!-- Node1&#45;&gt;Node6 -->
<g id="edge5" class="edge">
<title>Node1&#45;&gt;Node6</title>
<path fill="none" stroke="#191970" d="M655.2188,-67.3906C630.179,-57.0554 590.1775,-40.5447 562.034,-28.9284"/>
<polygon fill="#191970" stroke="#191970" points="563.1967,-25.622 552.6178,-25.0419 560.526,-32.0925 563.1967,-25.622"/>
</g>
<!-- Node7 -->
<g id="node7" class="node">
<title>Node7</title>
<g id="a_node7"><a xlink:title=" ">
<polygon fill="none" stroke="#bfbfbf" points="617,-.5 617,-30.5 740,-30.5 740,-.5 617,-.5"/>
<text text-anchor="start" x="625" y="-18.5" font-family="Helvetica,sans-Serif" font-size="10.00" fill="#000000">nil/crypto3/algebra</text>
<text text-anchor="middle" x="678.5" y="-7.5" font-family="Helvetica,sans-Serif" font-size="10.00" fill="#000000">/curves/curve25519.hpp</text>
</a>
</g>
</g>
<!-- Node1&#45;&gt;Node7 -->
<g id="edge6" class="edge">
<title>Node1&#45;&gt;Node7</title>
<path fill="none" stroke="#191970" d="M678.5,-67.3906C678.5,-60.2234 678.5,-50.0862 678.5,-40.671"/>
<polygon fill="#191970" stroke="#191970" points="682.0001,-40.5446 678.5,-30.5446 675.0001,-40.5446 682.0001,-40.5446"/>
</g>
<!-- Node8 -->
<g id="node8" class="node">
<title>Node8</title>
<g id="a_node8"><a xlink:title=" ">
<polygon fill="none" stroke="#bfbfbf" points="758.5,-.5 758.5,-30.5 888.5,-30.5 888.5,-.5 758.5,-.5"/>
<text text-anchor="start" x="766.5" y="-18.5" font-family="Helvetica,sans-Serif" font-size="10.00" fill="#000000">nil/crypto3/hash/algorithm</text>
<text text-anchor="middle" x="823.5" y="-7.5" font-family="Helvetica,sans-Serif" font-size="10.00" fill="#000000">/hash.hpp</text>
</a>
</g>
</g>
<!-- Node1&#45;&gt;Node8 -->
<g id="edge7" class="edge">
<title>Node1&#45;&gt;Node8</title>
<path fill="none" stroke="#191970" d="M701.1563,-67.3906C721.7796,-58.6435 752.8323,-45.4728 778.4918,-34.5897"/>
<polygon fill="#191970" stroke="#191970" points="780.1895,-37.6715 788.029,-30.5446 777.4562,-31.2272 780.1895,-37.6715"/>
</g>
<!-- Node9 -->
<g id="node9" class="node">
<title>Node9</title>
<g id="a_node9"><a xlink:title=" ">
<polygon fill="none" stroke="#bfbfbf" points="906.5,-6 906.5,-25 1036.5,-25 1036.5,-6 906.5,-6"/>
<text text-anchor="middle" x="971.5" y="-13" font-family="Helvetica,sans-Serif" font-size="10.00" fill="#000000">nil/crypto3/hash/sha2.hpp</text>
</a>
</g>
</g>
<!-- Node1&#45;&gt;Node9 -->
<g id="edge8" class="edge">
<title>Node1&#45;&gt;Node9</title>
<path fill="none" stroke="#191970" d="M707.1276,-70.9911C755.4143,-60.8559 853.8542,-40.1936 916.0393,-27.1411"/>
<polygon fill="#191970" stroke="#191970" points="917.0051,-30.5147 926.0728,-25.0351 915.5671,-23.664 917.0051,-30.5147"/>
</g>
<!-- Node10 -->
<g id="node10" class="node">
<title>Node10</title>
<g id="a_node10"><a xlink:title=" ">
<polygon fill="none" stroke="#bfbfbf" points="1055,-.5 1055,-30.5 1156,-30.5 1156,-.5 1055,-.5"/>
<text text-anchor="start" x="1063" y="-18.5" font-family="Helvetica,sans-Serif" font-size="10.00" fill="#000000">nil/crypto3/pubkey</text>
<text text-anchor="middle" x="1105.5" y="-7.5" font-family="Helvetica,sans-Serif" font-size="10.00" fill="#000000">/algorithm/sign.hpp</text>
</a>
</g>
</g>
<!-- Node1&#45;&gt;Node10 -->
<g id="edge9" class="edge">
<title>Node1&#45;&gt;Node10</title>
<path fill="none" stroke="#191970" d="M707.2475,-74.6599C767.8533,-69.4573 913.2828,-55.557 1045.0027,-30.9361"/>
<polygon fill="#191970" stroke="#191970" points="1045.6907,-34.3681 1054.8642,-29.0675 1044.3874,-27.4905 1045.6907,-34.3681"/>
</g>
<!-- Node11 -->
<g id="node11" class="node">
<title>Node11</title>
<g id="a_node11"><a xlink:title=" ">
<polygon fill="none" stroke="#bfbfbf" points="1174,-.5 1174,-30.5 1271,-30.5 1271,-.5 1174,-.5"/>
<text text-anchor="start" x="1182" y="-18.5" font-family="Helvetica,sans-Serif" font-size="10.00" fill="#000000">nil/crypto3/pubkey</text>
<text text-anchor="middle" x="1222.5" y="-7.5" font-family="Helvetica,sans-Serif" font-size="10.00" fill="#000000">/eddsa.hpp</text>
</a>
</g>
</g>
<!-- Node1&#45;&gt;Node11 -->
<g id="edge10" class="edge">
<title>Node1&#45;&gt;Node11</title>
<path fill="none" stroke="#191970" d="M707.003,-76.0133C781.0109,-73.0912 985.3928,-62.7259 1163.7229,-31.1442"/>
<polygon fill="#191970" stroke="#191970" points="1164.5857,-34.5453 1173.8081,-29.3302 1163.3464,-27.6558 1164.5857,-34.5453"/>
</g>
<!-- Node12 -->
<g id="node12" class="node">
<title>Node12</title>
<g id="a_node12"><a xlink:title=" ">
<polygon fill="none" stroke="#bfbfbf" points="1289.5,-.5 1289.5,-30.5 1399.5,-30.5 1399.5,-.5 1289.5,-.5"/>
<text text-anchor="start" x="1297.5" y="-18.5" font-family="Helvetica,sans-Serif" font-size="10.00" fill="#000000">nil/marshalling/status</text>
<text text-anchor="middle" x="1344.5" y="-7.5" font-family="Helvetica,sans-Serif" font-size="10.00" fill="#000000">_type.hpp</text>
</a>
</g>
</g>
<!-- Node1&#45;&gt;Node12 -->
<g id="edge11" class="edge">
<title>Node1&#45;&gt;Node12</title>
<path fill="none" stroke="#191970" d="M707.2053,-76.4471C792.8344,-74.4526 1053.9885,-65.865 1279.426,-31.0002"/>
<polygon fill="#191970" stroke="#191970" points="1280.1186,-34.4345 1289.4558,-29.4278 1279.0344,-27.519 1280.1186,-34.4345"/>
</g>
</g>
</svg>
