<?xml version="1.0" encoding="UTF-8" standalone="no"?>
<!DOCTYPE svg PUBLIC "-//W3C//DTD SVG 1.1//EN"
 "http://www.w3.org/Graphics/SVG/1.1/DTD/svg11.dtd">
<!-- Generated by graphviz version 2.40.1 (20161225.0304)
 -->
<!-- Title: main.cpp Pages: 1 -->
<svg width="776pt" height="140pt"
 viewBox="0.00 0.00 776.00 140.00" xmlns="http://www.w3.org/2000/svg" xmlns:xlink="http://www.w3.org/1999/xlink">
<g id="graph0" class="graph" transform="scale(1 1) rotate(0) translate(4 136)">
<title>main.cpp</title>
<!-- Node1 -->
<g id="node1" class="node">
<title>Node1</title>
<g id="a_node1"><a xlink:title=" ">
<polygon fill="#bfbfbf" stroke="#000000" points="299,-112.5 299,-131.5 356,-131.5 356,-112.5 299,-112.5"/>
<text text-anchor="middle" x="327.5" y="-119.5" font-family="Helvetica,sans-Serif" font-size="10.00" fill="#000000">main.cpp</text>
</a>
</g>
</g>
<!-- Node2 -->
<g id="node2" class="node">
<title>Node2</title>
<g id="a_node2"><a xlink:title=" ">
<polygon fill="none" stroke="#bfbfbf" points="0,-56.5 0,-75.5 55,-75.5 55,-56.5 0,-56.5"/>
<text text-anchor="middle" x="27.5" y="-63.5" font-family="Helvetica,sans-Serif" font-size="10.00" fill="#000000">iostream</text>
</a>
</g>
</g>
<!-- Node1&#45;&gt;Node2 -->
<g id="edge1" class="edge">
<title>Node1&#45;&gt;Node2</title>
<path fill="none" stroke="#191970" d="M298.7987,-117.9459C251.828,-111.1077 155.4583,-96.2277 65.1809,-76.2309"/>
<polygon fill="#191970" stroke="#191970" points="65.8629,-72.797 55.3394,-74.0248 64.3317,-79.6275 65.8629,-72.797"/>
</g>
<!-- Node3 -->
<g id="node3" class="node">
<title>Node3</title>
<g id="a_node3"><a xlink:title=" ">
<polygon fill="none" stroke="#bfbfbf" points="73,-56.5 73,-75.5 200,-75.5 200,-56.5 73,-56.5"/>
<text text-anchor="middle" x="136.5" y="-63.5" font-family="Helvetica,sans-Serif" font-size="10.00" fill="#000000">boost/circular_buffer.hpp</text>
</a>
</g>
</g>
<!-- Node1&#45;&gt;Node3 -->
<g id="edge2" class="edge">
<title>Node1&#45;&gt;Node3</title>
<path fill="none" stroke="#191970" d="M298.9054,-113.6162C267.1339,-104.301 215.5082,-89.1647 179.0022,-78.4614"/>
<polygon fill="#191970" stroke="#191970" points="179.7165,-75.0235 169.1357,-75.5686 177.747,-81.7408 179.7165,-75.0235"/>
</g>
<!-- Node4 -->
<g id="node4" class="node">
<title>Node4</title>
<g id="a_node4"><a xlink:title=" ">
<polygon fill="none" stroke="#bfbfbf" points="218.5,-56.5 218.5,-75.5 316.5,-75.5 316.5,-56.5 218.5,-56.5"/>
<text text-anchor="middle" x="267.5" y="-63.5" font-family="Helvetica,sans-Serif" font-size="10.00" fill="#000000">boost/optional.hpp</text>
</a>
</g>
</g>
<!-- Node1&#45;&gt;Node4 -->
<g id="edge3" class="edge">
<title>Node1&#45;&gt;Node4</title>
<path fill="none" stroke="#191970" d="M317.0488,-112.2455C308.2731,-104.0549 295.5446,-92.1749 285.186,-82.5069"/>
<polygon fill="#191970" stroke="#191970" points="287.5301,-79.9072 277.8314,-75.6427 282.7539,-85.0246 287.5301,-79.9072"/>
</g>
<!-- Node5 -->
<g id="node5" class="node">
<title>Node5</title>
<g id="a_node5"><a xlink:title=" ">
<polygon fill="none" stroke="#bfbfbf" points="334.5,-56.5 334.5,-75.5 442.5,-75.5 442.5,-56.5 334.5,-56.5"/>
<text text-anchor="middle" x="388.5" y="-63.5" font-family="Helvetica,sans-Serif" font-size="10.00" fill="#000000">boost/filesystem.hpp</text>
</a>
</g>
</g>
<!-- Node1&#45;&gt;Node5 -->
<g id="edge4" class="edge">
<title>Node1&#45;&gt;Node5</title>
<path fill="none" stroke="#191970" d="M338.1254,-112.2455C347.0473,-104.0549 359.988,-92.1749 370.5192,-82.5069"/>
<polygon fill="#191970" stroke="#191970" points="372.9968,-84.9837 377.9964,-75.6427 368.2629,-79.8271 372.9968,-84.9837"/>
</g>
<!-- Node6 -->
<g id="node6" class="node">
<title>Node6</title>
<g id="a_node6"><a xlink:title=" ">
<polygon fill="none" stroke="#bfbfbf" points="460.5,-56.5 460.5,-75.5 598.5,-75.5 598.5,-56.5 460.5,-56.5"/>
<text text-anchor="middle" x="529.5" y="-63.5" font-family="Helvetica,sans-Serif" font-size="10.00" fill="#000000">boost/program_options.hpp</text>
</a>
</g>
</g>
<!-- Node1&#45;&gt;Node6 -->
<g id="edge5" class="edge">
<title>Node1&#45;&gt;Node6</title>
<path fill="none" stroke="#191970" d="M356.0132,-114.0953C389.628,-104.7764 445.884,-89.1807 485.1933,-78.283"/>
<polygon fill="#191970" stroke="#191970" points="486.346,-81.5956 495.0475,-75.5512 484.4759,-74.85 486.346,-81.5956"/>
</g>
<!-- Node7 -->
<g id="node7" class="node">
<title>Node7</title>
<g id="a_node7"><a xlink:href="../../d0/d53/sexp_8hpp.html" target="_top" xlink:title=" ">
<polygon fill="none" stroke="#000000" points="616.5,-56.5 616.5,-75.5 752.5,-75.5 752.5,-56.5 616.5,-56.5"/>
<text text-anchor="middle" x="684.5" y="-63.5" font-family="Helvetica,sans-Serif" font-size="10.00" fill="#000000">nil/mina/auxproof/sexp.hpp</text>
</a>
</g>
</g>
<!-- Node1&#45;&gt;Node7 -->
<g id="edge6" class="edge">
<title>Node1&#45;&gt;Node7</title>
<path fill="none" stroke="#191970" d="M356.1113,-117.5119C411.4543,-108.8307 534.6383,-89.5077 613.4047,-77.1522"/>
<polygon fill="#191970" stroke="#191970" points="614.3985,-80.5392 623.7352,-75.5317 613.3136,-73.6238 614.3985,-80.5392"/>
</g>
<!-- Node8 -->
<g id="node8" class="node">
<title>Node8</title>
<g id="a_node8"><a xlink:title=" ">
<polygon fill="none" stroke="#bfbfbf" points="601.5,-.5 601.5,-19.5 645.5,-19.5 645.5,-.5 601.5,-.5"/>
<text text-anchor="middle" x="623.5" y="-7.5" font-family="Helvetica,sans-Serif" font-size="10.00" fill="#000000">vector</text>
</a>
</g>
</g>
<!-- Node7&#45;&gt;Node8 -->
<g id="edge7" class="edge">
<title>Node7&#45;&gt;Node8</title>
<path fill="none" stroke="#191970" d="M673.8746,-56.2455C664.9527,-48.0549 652.012,-36.1749 641.4808,-26.5069"/>
<polygon fill="#191970" stroke="#191970" points="643.7371,-23.8271 634.0036,-19.6427 639.0032,-28.9837 643.7371,-23.8271"/>
</g>
<!-- Node9 -->
<g id="node9" class="node">
<title>Node9</title>
<g id="a_node9"><a xlink:title=" ">
<polygon fill="none" stroke="#bfbfbf" points="664,-.5 664,-19.5 705,-19.5 705,-.5 664,-.5"/>
<text text-anchor="middle" x="684.5" y="-7.5" font-family="Helvetica,sans-Serif" font-size="10.00" fill="#000000">string</text>
</a>
</g>
</g>
<!-- Node7&#45;&gt;Node9 -->
<g id="edge8" class="edge">
<title>Node7&#45;&gt;Node9</title>
<path fill="none" stroke="#191970" d="M684.5,-56.2455C684.5,-48.9382 684.5,-38.6944 684.5,-29.7046"/>
<polygon fill="#191970" stroke="#191970" points="688.0001,-29.6426 684.5,-19.6427 681.0001,-29.6427 688.0001,-29.6426"/>
</g>
<!-- Node10 -->
<g id="node10" class="node">
<title>Node10</title>
<g id="a_node10"><a xlink:title=" ">
<polygon fill="none" stroke="#bfbfbf" points="723,-.5 723,-19.5 768,-19.5 768,-.5 723,-.5"/>
<text text-anchor="middle" x="745.5" y="-7.5" font-family="Helvetica,sans-Serif" font-size="10.00" fill="#000000">cstdint</text>
</a>
</g>
</g>
<!-- Node7&#45;&gt;Node10 -->
<g id="edge9" class="edge">
<title>Node7&#45;&gt;Node10</title>
<path fill="none" stroke="#191970" d="M695.1254,-56.2455C704.0473,-48.0549 716.988,-36.1749 727.5192,-26.5069"/>
<polygon fill="#191970" stroke="#191970" points="729.9968,-28.9837 734.9964,-19.6427 725.2629,-23.8271 729.9968,-28.9837"/>
</g>
</g>
</svg>
