<?xml version="1.0" standalone="yes"?>
<svg xmlns="http://www.w3.org/2000/svg" width="1224" height="792">
<path style="fill:#000000; stroke:none;" d="M0 0L0 792L1224 792L1224 0L0 0z"/>
<path style="fill:#ffffff; stroke:none;" d="M331 473L355 473L355 377L355 352C355 348.897 354.166 344.139 356.028 341.434C358.84 337.348 367.72 339 372 339C372.059 360.529 377.255 382.647 379.845 404C381.29 415.919 381.167 430.331 387.174 441C391.208 448.162 397.016 449.792 402.686 454.85C409.816 461.209 403.734 473.893 417 475.681C418.666 475.905 420.368 475.859 421.999 475.427C427.583 473.951 430.499 469.399 431.532 464C432.07 461.193 431.636 457.875 433.603 455.557C435.484 453.342 438.618 452.419 440.999 450.87C444.833 448.377 447.885 444.997 450.095 441C455.795 430.693 455.792 417.432 457.282 406C460.191 383.667 463.174 361.342 466 339C471.772 339 477.279 339.277 483 340L483 473L506 473L506 391C506 379.038 508.687 363.265 504.239 352C501.041 343.899 494.481 341.816 489.6 335.61C484.852 329.575 489.722 321.875 480.995 317.318C474.279 313.81 465.549 317.07 462.815 324.015C461.426 327.544 461.79 332.374 458.683 334.954C453.512 339.248 448.081 340.911 444.272 347C437.657 357.574 437.533 370.038 435.87 382C433.881 396.302 432.495 410.683 430.714 425C429.671 433.379 428.006 441.521 428 450C423.168 450.611 415.686 452.69 411.514 449.142C408.729 446.773 409.04 442.295 408.576 439C407.355 430.344 406.411 421.668 405.282 413C403.589 400.006 402.212 386.983 400.424 374C399.174 364.93 398.281 356.084 393.535 348.004C391.34 344.266 388.626 341.247 384.985 338.877C382.477 337.243 378.746 336.157 377.024 333.585C373.614 328.493 375.716 322.258 369.815 318.148C363.056 313.44 353.151 316.428 350.148 324.004C348.669 327.734 349.89 332.456 347.397 335.74C343.185 341.286 337.109 343.04 334.043 350C328.623 362.304 331 377.842 331 391L331 473M606 473L630 473L630 378L630 353C630 349.729 629.241 345.151 631.028 342.228C634.045 337.293 643.12 339 648 339C648.34 346.43 650.976 353.756 652.576 361C656.117 377.033 660.035 392.969 663.576 409C666.26 421.154 667.814 435.818 675.606 445.96C680.454 452.27 686.858 452.64 692.721 456.934C696.154 459.449 696.154 464.401 697.803 467.999C700.935 474.833 709.261 478.273 715.985 474.142C723.941 469.254 719.096 462.576 723.028 456.39C724.641 453.852 728.109 452.697 730.421 450.895C734.086 448.038 737.057 444.34 738.787 440C743.489 428.204 741 412.452 741 400L741 318L717 318L717 414L717 439C717 442.156 717.821 446.912 715.972 449.682C713.192 453.848 703.348 452 699 452C697.509 433.752 690.892 414.753 686.475 397C683.054 383.247 681.576 368.165 676.243 355C671.94 344.377 663.798 336.037 652 335C651.147 324.278 642.925 309.273 630.185 318.148C623.544 322.775 627.245 329.071 623.972 334.871C622.277 337.875 618.593 339.329 616.04 341.478C612.433 344.515 609.657 348.54 608.107 353C603.773 365.475 606 381.014 606 394L606 473M812 336C795.467 339.544 789.774 355.507 785.849 370C776.598 404.155 765.169 438.358 758 473L775 473C777.235 472.995 780.377 473.446 782.272 471.972C785.162 469.724 785.544 463.333 786.373 460C789.036 449.3 793.103 437.986 794 427L858 427C859.25 442.308 865.571 458.007 869 473L894 473C892.411 461.208 887.919 449.501 884.884 438C878.626 414.279 872.002 390.634 865.424 367C861.617 353.32 855.334 339.287 840 336C839.572 330.618 838.71 324.52 835.2 320.189C829.882 313.629 819.688 315.084 815.533 322.04C813.072 326.16 812.374 331.298 812 336M545 318L545 473L568 473L568 318L545 318z"/>
<path style="fill:#000000; stroke:none;" d="M355 335C360.569 333.435 365.302 332.644 371 334C370.36 330.704 370.086 326.478 367.772 323.854C364.516 320.164 358.57 320.863 356.179 325.109C354.55 328.001 355.002 331.807 355 335M466 334C472.05 332.56 477.039 333.77 483 335C482.738 328.926 478.115 314.804 469.854 323.514C467.295 326.212 466.896 330.548 466 334M630 335C635.442 333.877 640.42 333.004 646 333C645.185 326.983 638.427 315.245 631.938 324.279C629.804 327.25 630.029 331.529 630 335M818 334C823.575 333.56 828.426 333.56 834 334C833.488 328.133 827.675 315.06 820.854 324.228C818.852 326.92 818.434 330.779 818 334M550 324L550 468L562 468L562 372C562 356.744 559.461 338.864 563 324L550 324M722 324L722 449C736.539 443.367 735 428.918 735 416L735 324L722 324M800 407L853 407C848.401 390.792 844.46 374.348 840.373 358C839.196 353.292 838.793 343.261 834.49 340.318C830.847 337.827 819.099 337.689 816.303 341.514C812.824 346.273 812.297 355.334 810.873 361C807.136 375.878 801.25 391.7 800 407M377 341C382.616 364.524 383.593 390.009 386.718 414C388.629 428.668 389.71 441.353 404 449C401.944 422.943 397.48 396.938 394.285 371C392.752 358.561 390.034 346.02 377 341M459 341C445.06 350.527 444.027 363.475 441.87 379C438.641 402.237 437.284 425.935 433 449C448.796 440.547 449.441 425.102 451.166 409C452.559 395.993 454.424 382.954 456.271 370C457.125 364.01 457.692 357.992 458.579 352C459.113 348.391 460.24 344.457 459 341M654 341C657.679 369.488 666.89 398.015 673.349 426C675.788 436.568 680.744 448.669 693 450C689.251 422.16 679.967 394.374 673.651 367C671.057 355.756 666.79 343.467 654 341M348 342C334.854 352.939 336 367.333 336 383L336 468L349 468L349 380L349 355C349 350.74 349.661 345.959 348 342M488 342L488 468L501 468L501 379C501 364.697 502.057 350.131 488 342M624 342C621.033 344.418 617.934 346.755 615.818 350.004C609.638 359.492 612 373.233 612 384L612 468L625 468L625 380L625 355C625 350.74 625.661 345.959 624 342M809 342C805.199 345.042 801.393 347.958 798.598 352.015C792.09 361.458 790.665 374.173 787.579 385C779.724 412.556 772.192 440.272 765 468L779 468C779.928 457.353 784.031 446.38 786.627 436C787.539 432.349 787.927 426.354 790.728 423.603C794.037 420.354 802.73 422 807 422L847 422C850.961 422 858.171 420.629 861.297 423.603C863.647 425.84 864.121 430.006 864.873 433C866.799 440.664 868.662 448.346 870.63 456C871.41 459.035 871.943 464.96 874.589 466.972C877.459 469.155 883.582 468 887 468C883.51 451.137 877.987 434.599 873.425 418C869.675 404.355 866.471 390.545 862.344 377C858.092 363.044 855.971 349.599 842 342C847.425 365.724 853.4 389.569 860 413L793 413C794.359 396.358 800.826 379.191 804.873 363C806.394 356.918 810.403 348.142 809 342M411 456C411.074 459.574 410.973 464.531 413.164 467.566C415.563 470.889 421.579 470.536 424.106 467.566C426.606 464.628 426.141 459.607 427 456L411 456M701 458C701.775 463.725 707.971 476.433 714.911 467.566C717.171 464.678 716.971 460.455 717 457C711.612 457.681 706.437 458 701 458z"/>
</svg>
