<?xml version="1.0" encoding="UTF-8" standalone="no"?>
<!DOCTYPE svg PUBLIC "-//W3C//DTD SVG 1.1//EN"
 "http://www.w3.org/Graphics/SVG/1.1/DTD/svg11.dtd">
<!-- Generated by graphviz version 2.40.1 (20161225.0304)
 -->
<!-- Title: nil::sexp Pages: 1 -->
<svg width="137pt" height="514pt"
 viewBox="0.00 0.00 137.00 514.00" xmlns="http://www.w3.org/2000/svg" xmlns:xlink="http://www.w3.org/1999/xlink">
<g id="graph0" class="graph" transform="scale(1 1) rotate(0) translate(4 510)">
<title>nil::sexp</title>
<!-- Node1 -->
<g id="node1" class="node">
<title>Node1</title>
<g id="a_node1"><a xlink:title=" ">
<polygon fill="#bfbfbf" stroke="#000000" points="0,-105.5 0,-294.5 129,-294.5 129,-105.5 0,-105.5"/>
<text text-anchor="middle" x="64.5" y="-282.5" font-family="Helvetica,sans-Serif" font-size="10.00" fill="#000000">nil::sexp</text>
<polyline fill="none" stroke="#000000" points="0,-275.5 129,-275.5 "/>
<text text-anchor="start" x="8" y="-263.5" font-family="Helvetica,sans-Serif" font-size="10.00" fill="#000000">+ kind</text>
<text text-anchor="start" x="8" y="-252.5" font-family="Helvetica,sans-Serif" font-size="10.00" fill="#000000">+ value</text>
<polyline fill="none" stroke="#000000" points="0,-245.5 129,-245.5 "/>
<text text-anchor="start" x="8" y="-233.5" font-family="Helvetica,sans-Serif" font-size="10.00" fill="#000000">+ add_child()</text>
<text text-anchor="start" x="8" y="-222.5" font-family="Helvetica,sans-Serif" font-size="10.00" fill="#000000">+ add_child()</text>
<text text-anchor="start" x="8" y="-211.5" font-family="Helvetica,sans-Serif" font-size="10.00" fill="#000000">+ add_child_unescaped()</text>
<text text-anchor="start" x="8" y="-200.5" font-family="Helvetica,sans-Serif" font-size="10.00" fill="#000000">+ add_expression()</text>
<text text-anchor="start" x="8" y="-189.5" font-family="Helvetica,sans-Serif" font-size="10.00" fill="#000000">+ arguments()</text>
<text text-anchor="start" x="8" y="-178.5" font-family="Helvetica,sans-Serif" font-size="10.00" fill="#000000">+ child_count()</text>
<text text-anchor="start" x="8" y="-167.5" font-family="Helvetica,sans-Serif" font-size="10.00" fill="#000000">+ create_path()</text>
<text text-anchor="start" x="8" y="-156.5" font-family="Helvetica,sans-Serif" font-size="10.00" fill="#000000">+ create_path()</text>
<text text-anchor="start" x="8" y="-145.5" font-family="Helvetica,sans-Serif" font-size="10.00" fill="#000000">+ equal()</text>
<text text-anchor="start" x="8" y="-134.5" font-family="Helvetica,sans-Serif" font-size="10.00" fill="#000000">+ get_child()</text>
<text text-anchor="start" x="8" y="-123.5" font-family="Helvetica,sans-Serif" font-size="10.00" fill="#000000">and 9 more...</text>
<text text-anchor="start" x="8" y="-112.5" font-family="Helvetica,sans-Serif" font-size="10.00" fill="#000000">+ unescaped()</text>
</a>
</g>
</g>
<!-- Node2 -->
<g id="node2" class="node">
<title>Node2</title>
<g id="a_node2"><a xlink:title=" ">
<polygon fill="none" stroke="#bfbfbf" points="6,-.5 6,-57.5 123,-57.5 123,-.5 6,-.5"/>
<text text-anchor="middle" x="64.5" y="-45.5" font-family="Helvetica,sans-Serif" font-size="10.00" fill="#000000">std::vector&lt; nil::sexp &gt;</text>
<polyline fill="none" stroke="#bfbfbf" points="6,-38.5 123,-38.5 "/>
<text text-anchor="middle" x="64.5" y="-26.5" font-family="Helvetica,sans-Serif" font-size="10.00" fill="#000000"> </text>
<polyline fill="none" stroke="#bfbfbf" points="6,-19.5 123,-19.5 "/>
<text text-anchor="middle" x="64.5" y="-7.5" font-family="Helvetica,sans-Serif" font-size="10.00" fill="#000000"> </text>
</a>
</g>
</g>
<!-- Node1&#45;&gt;Node2 -->
<g id="edge2" class="edge">
<title>Node1&#45;&gt;Node2</title>
<path fill="none" stroke="#404040" d="M21.6454,-105.2808C21.0459,-95.3553 22.0912,-85.4463 25.5,-76 26.4869,-73.2651 27.7099,-70.5768 29.1071,-67.9565"/>
<polygon fill="none" stroke="#404040" points="29.2375,-67.7511 29.0789,-60.5418 35.6728,-57.6226 35.8313,-64.8319 29.2375,-67.7511"/>
<text text-anchor="middle" x="50.5" y="-79" font-family="Helvetica,sans-Serif" font-size="10.00" fill="#000000"> +elements</text>
</g>
<!-- Node2&#45;&gt;Node1 -->
<g id="edge1" class="edge">
<title>Node2&#45;&gt;Node1</title>
<path fill="none" stroke="#404040" d="M75.2128,-57.7456C76.9939,-63.7001 78.5644,-69.9911 79.5,-76 80.3815,-81.6613 80.9212,-87.4749 81.1804,-93.349"/>
<polygon fill="none" stroke="#404040" points="81.1818,-93.4631 85.2595,-99.4105 81.3379,-105.4621 77.2602,-99.5146 81.1818,-93.4631"/>
<text text-anchor="middle" x="88" y="-79" font-family="Helvetica,sans-Serif" font-size="10.00" fill="#000000"> +e</text>
</g>
<!-- Node3 -->
<g id="node3" class="node">
<title>Node3</title>
<g id="a_node3"><a xlink:title=" ">
<polygon fill="none" stroke="#bfbfbf" points="34.5,-342.5 34.5,-399.5 94.5,-399.5 94.5,-342.5 34.5,-342.5"/>
<text text-anchor="middle" x="64.5" y="-387.5" font-family="Helvetica,sans-Serif" font-size="10.00" fill="#000000">std::string</text>
<polyline fill="none" stroke="#bfbfbf" points="34.5,-380.5 94.5,-380.5 "/>
<text text-anchor="middle" x="64.5" y="-368.5" font-family="Helvetica,sans-Serif" font-size="10.00" fill="#000000"> </text>
<polyline fill="none" stroke="#bfbfbf" points="34.5,-361.5 94.5,-361.5 "/>
<text text-anchor="middle" x="64.5" y="-349.5" font-family="Helvetica,sans-Serif" font-size="10.00" fill="#000000"> </text>
</a>
</g>
</g>
<!-- Node3&#45;&gt;Node1 -->
<g id="edge3" class="edge">
<title>Node3&#45;&gt;Node1</title>
<path fill="none" stroke="#404040" d="M64.5,-342.3784C64.5,-332.1146 64.5,-319.8493 64.5,-306.8829"/>
<polygon fill="none" stroke="#404040" points="64.5001,-306.8152 60.5,-300.8152 64.5,-294.8152 68.5,-300.8152 64.5001,-306.8152"/>
<text text-anchor="middle" x="74.5" y="-316" font-family="Helvetica,sans-Serif" font-size="10.00" fill="#000000"> +str</text>
</g>
<!-- Node4 -->
<g id="node4" class="node">
<title>Node4</title>
<g id="a_node4"><a xlink:title=" ">
<polygon fill="none" stroke="#bfbfbf" points="17,-437.5 17,-505.5 112,-505.5 112,-437.5 17,-437.5"/>
<text text-anchor="start" x="25" y="-493.5" font-family="Helvetica,sans-Serif" font-size="10.00" fill="#000000">std::basic_string&lt;</text>
<text text-anchor="middle" x="64.5" y="-482.5" font-family="Helvetica,sans-Serif" font-size="10.00" fill="#000000"> Char &gt;</text>
<polyline fill="none" stroke="#bfbfbf" points="17,-475.5 112,-475.5 "/>
<text text-anchor="middle" x="64.5" y="-463.5" font-family="Helvetica,sans-Serif" font-size="10.00" fill="#000000"> </text>
<polyline fill="none" stroke="#bfbfbf" points="17,-456.5 112,-456.5 "/>
<text text-anchor="middle" x="64.5" y="-444.5" font-family="Helvetica,sans-Serif" font-size="10.00" fill="#000000"> </text>
</a>
</g>
</g>
<!-- Node4&#45;&gt;Node3 -->
<g id="edge4" class="edge">
<title>Node4&#45;&gt;Node3</title>
<path fill="none" stroke="#191970" d="M64.5,-427.4301C64.5,-418.0073 64.5,-408.2901 64.5,-399.6312"/>
<polygon fill="none" stroke="#191970" points="61.0001,-427.4752 64.5,-437.4753 68.0001,-427.4753 61.0001,-427.4752"/>
</g>
</g>
</svg>
