<?xml version="1.0" encoding="UTF-8" standalone="no"?>
<!DOCTYPE svg PUBLIC "-//W3C//DTD SVG 1.1//EN" "http://www.w3.org/Graphics/SVG/1.1/DTD/svg11.dtd">
<svg xmlns="http://www.w3.org/2000/svg" xmlns:xl="http://www.w3.org/1999/xlink" xmlns:dc="http://purl.org/dc/elements/1.1/" version="1.1" viewBox="0 0 2560 1440" width="1280" height="720">
  <defs/>
  <g id="Canvas_1" fill="none" stroke-dasharray="none" stroke="none" fill-opacity="1" stroke-opacity="1">
    <title>Canvas 1</title>
    <g id="Canvas_1: Layer 1">
      <title>Layer 1</title>
      <g id="Group_2">
        <title>svgg</title>
        <g id="Graphic_4">
          <title>path0</title>
          <path d="M 1264.9856 223.6672 C 1267.5712 727.8528 1269.3504 1114.7904 1269.344 1172.3328 L 1269.3312 1244 L 1272.9984 1244 L 1276.6656 1244 L 1276.3456 1181.6704 C 1273.664 656.992 1271.9872 291.9424 1271.9936 233.664 L 1272 161.3312 L 1268.3328 161.3312 L 1264.6656 161.3312 L 1264.9856 223.6672 M 660.5248 300.9984 C 659.7312 302.2848 651.68 315.936 642.6368 331.3344 C 614.1056 379.9296 586.4576 427.0656 582.0224 434.6688 C 579.6736 438.7008 570.6816 454.0032 562.0416 468.6656 C 553.4016 483.3344 539.296 507.3344 530.688 522.0032 C 501.8752 571.1168 465.0816 633.76 449.632 660 C 407.7504 731.1232 409.248 728.3584 411.7184 730.0544 C 412.9728 730.9184 435.6032 745.1072 462.0032 761.5872 C 488.4032 778.0672 544.352 813.0048 586.3296 839.2192 L 662.6624 886.8864 L 749.664 832.5696 C 897.0112 740.5696 911.2576 731.6608 913.6128 730.048 C 916.0832 728.3584 917.5744 731.1104 875.7056 660 C 860.2496 633.76 823.456 571.1168 794.6432 522.0032 C 786.0416 507.3344 771.9296 483.3344 763.296 468.6656 C 754.656 454.0032 745.664 438.7008 743.3088 434.6688 C 738.8736 427.0656 711.2256 379.9296 682.6944 331.3344 C 663.04 297.856 663.5328 298.6688 662.6688 298.6688 C 662.2848 298.6688 661.3248 299.7184 660.5248 300.9984 M 1559.3344 615.2064 C 1552.224 618.3424 1550.1248 621.952 1549.5552 632.0576 C 1549.1392 639.4304 1548.5632 641.3952 1546.656 642.0032 C 1541.056 643.7824 1533.1712 651.0592 1529.696 657.6512 L 1526.0032 664.6656 L 1525.6256 743.6672 L 1525.2544 822.6688 L 1539.9616 822.6688 L 1554.6688 822.6688 L 1554.6688 733.4912 L 1554.6688 644.3136 L 1563.1104 643.4048 C 1574.8736 642.144 1578.4192 643.2512 1579.328 648.4672 C 1579.7312 650.7776 1583.3536 678.3232 1587.3856 709.6832 C 1592.5632 749.9648 1595.552 768.928 1597.5488 774.272 C 1600.896 783.2128 1610.8096 793.9008 1617.024 795.264 C 1622.656 796.5056 1623.552 797.984 1624.6848 808 C 1627.488 832.6464 1653.7408 832.0384 1657.2544 807.2384 C 1657.9392 802.368 1658.6944 798.2464 1658.9184 798.0736 C 1659.1488 797.9008 1662.176 796.416 1665.6512 794.7712 C 1673.4912 791.0592 1681.2352 782.4128 1684.4096 773.8432 C 1686.1824 769.0496 1702.5728 653.4464 1702.656 645.1456 C 1702.6752 643.3664 1710.0928 642.5344 1718.2144 643.4048 L 1726.6496 644.3072 L 1726.9888 733.152 L 1727.3344 822.0032 L 1742.0032 822.0032 L 1756.6656 822.0032 L 1756.6656 744.6656 L 1756.6656 667.3344 L 1753.0112 659.8912 C 1749.2672 652.2624 1743.5392 646.24 1736.5888 642.624 C 1733.0048 640.7552 1732.608 639.84 1731.9744 631.9552 C 1729.856 605.504 1698.7264 608.3136 1698.6752 634.9632 C 1698.6688 638.0416 1697.6576 639.0272 1692.0128 641.4528 C 1672.608 649.8048 1670.496 656.0384 1660.7744 733.8816 C 1655.84 773.3632 1652.896 792.8128 1651.7312 793.6 C 1649.9776 794.784 1630.0928 794.5472 1628.9024 793.3312 C 1628.544 792.9664 1624.8576 765.4784 1620.704 732.2432 C 1612.8128 669.1264 1611.8976 664.5696 1605.0624 654.496 C 1600.9408 648.4224 1590.0032 640 1586.2336 640 C 1584.2112 640 1582.7136 636.1472 1582.688 630.848 C 1582.6176 619.4176 1569.5808 610.6816 1559.3344 615.2064 M 1925.8688 615.5648 C 1920.096 618.4448 1917.1136 624.224 1916.3264 634.0544 C 1915.7504 641.2544 1915.2384 642.5664 1912.7872 643.1808 C 1907.6032 644.4864 1899.1232 653.0432 1895.8528 660.2752 L 1892.6656 667.3344 L 1892.6656 744.6656 L 1892.6656 822.0032 L 1907.3344 822.0032 L 1922.0032 822.0032 L 1922.3424 733.1328 L 1922.688 644.2688 L 1931.6736 643.3728 C 1947.808 641.7728 1945.1584 636.096 1961.6128 707.4624 C 1980.1792 787.9808 1982.3808 792.544 2005.9904 799.68 C 2009.4016 800.704 2010.2016 801.8496 2011.4496 807.4688 C 2017.1904 833.3312 2042.336 831.9872 2045.184 805.6704 C 2045.9008 799.0272 2046.4832 797.8432 2049.9136 796.0448 C 2056.1792 792.768 2061.3376 787.776 2065.1328 781.3312 L 2068.6656 775.3344 L 2069.0432 696.3328 L 2069.4144 617.3312 L 2054.0416 617.3312 L 2038.6688 617.3312 L 2038.6688 705.8304 L 2038.6688 794.336 L 2034.5024 795.168 C 2025.6064 796.9472 2014.8928 796.1536 2014.1504 793.664 C 2013.7728 792.384 2006.8672 763.3408 1998.816 729.12 C 1980.3584 650.7392 1977.1904 644.2816 1954.7264 639.3472 C 1951.328 638.5984 1950.7968 637.7792 1950.016 632.1088 C 1948.0064 617.5232 1937.0304 609.9968 1925.8688 615.5648 M 2177.0176 615.4176 C 2172.672 617.7792 2169.4144 623.5712 2167.3344 632.6336 C 2165.92 638.8032 2165.2608 639.5904 2157.9072 643.84 C 2140.8576 653.7088 2139.3536 656.96 2121.3632 722.944 C 2113.3056 752.4928 2104 786.5728 2100.6912 798.6752 C 2097.376 810.7776 2094.6688 821.1456 2094.6688 821.7152 C 2094.6688 822.2848 2101.6832 822.5792 2110.2592 822.3744 L 2125.8496 822.0032 L 2133.3376 792 L 2140.8192 762.0032 L 2184.0768 761.664 L 2227.3344 761.3248 L 2233.8752 787.6608 C 2237.472 802.1504 2240.9472 815.9488 2241.6 818.336 L 2242.7904 822.6688 L 2258.0608 822.6688 C 2267.9552 822.6688 2273.3312 822.1696 2273.3312 821.248 C 2273.3312 817.056 2232.736 671.488 2229.792 665.1328 C 2225.2544 655.3344 2219.84 649.4848 2210.0928 643.84 C 2202.7392 639.5904 2202.08 638.8032 2200.6656 632.6336 C 2196.9216 616.3072 2187.7248 609.6128 2177.0176 615.4176 M 1809.6576 719.6672 L 1810.0032 822.0032 L 1824.3328 822.3808 L 1838.6688 822.7584 L 1838.6688 720.0448 L 1838.6688 617.3312 L 1823.9936 617.3312 L 1809.3184 617.3312 L 1809.6576 719.6672 M 1572.6848 622.208 C 1575.5008 625.024 1577.3376 629.856 1577.3248 634.4192 L 1577.3184 638.0032 L 1565.8304 638.2656 L 1554.3424 638.528 L 1554.976 631.9168 C 1556.0128 621.1264 1566.08 615.6032 1572.6848 622.208 M 1723.9488 622.9184 C 1725.8944 625.0048 1726.6688 627.6416 1726.6688 632.1792 L 1726.6688 638.5152 L 1715.3408 638.2592 C 1703.0144 637.9776 1703.1232 638.0672 1704.8128 629.5936 C 1706.6752 620.3008 1717.8688 616.3904 1723.9488 622.9184 M 1937.9392 620.8256 C 1940.6016 621.8496 1943.3728 627.1424 1944.48 633.3312 L 1945.312 638.0032 L 1933.9904 638.2592 L 1922.6688 638.5152 L 1922.6688 632.1792 C 1922.6688 622.368 1929.2352 617.4912 1937.9392 620.8256 M 2192.2112 625.3312 C 2193.4336 627.8976 2194.8096 631.8528 2195.2704 634.112 L 2196.1152 638.2208 L 2184.0576 638.2208 C 2177.4272 638.2208 2172.0064 637.8752 2172.0064 637.4464 C 2172.1536 622.368 2186.6752 613.664 2192.2112 625.3312 M 1833.3312 720.064 L 1833.3312 817.4528 L 1824.3328 817.0624 L 1815.3344 816.6656 L 1814.9888 721.3312 C 1814.7968 668.9024 1814.9312 625.248 1815.2768 624.3328 C 1815.6992 623.232 1818.8864 622.6688 1824.6272 622.6688 L 1833.3312 622.6688 L 1833.3312 720.064 M 2063.68 695.8144 C 2064.0832 780.5696 2063.968 781.3312 2049.4784 789.7408 L 2045.3312 792.1536 L 2045.3312 707.3472 L 2045.3312 622.5472 L 2054.336 622.9376 L 2063.3344 623.3344 L 2063.68 695.8144 M 2197.4784 645.1328 C 2198.4128 646.1312 2220.0768 731.8144 2220.032 734.336 C 2220.0064 735.6224 2211.8976 736 2184 736 C 2156.0704 736 2148.0064 735.6288 2148.0384 734.336 C 2148.0576 733.4144 2153.0432 712.864 2159.1168 688.6656 L 2170.1568 644.6656 L 2175.4112 643.808 C 2181.2032 642.8672 2196.192 643.7696 2197.4784 645.1328 M 1962.0032 648.0192 C 1972.3328 651.8912 1977.984 664.4352 1987.2384 704 C 1991.4368 721.9648 1996.3584 742.9696 1998.1696 750.6688 C 2008.2368 793.4272 2008.4928 794.6688 2007.104 794.656 C 1995.3792 794.5216 1983.9808 778.3104 1977.9712 753.216 C 1972.2816 729.4528 1953.3312 646.9184 1953.3312 645.9008 C 1953.3312 645.1776 1956.4416 645.9392 1962.0032 648.0192 M 1549.3312 732 L 1549.3312 817.3312 L 1539.968 817.3312 L 1530.6048 817.3312 L 1530.9696 742.336 L 1531.3344 667.3344 L 1534.5088 660.8832 C 1537.0432 655.7376 1546.2016 646.6688 1548.864 646.6688 C 1549.1264 646.6688 1549.3312 685.0688 1549.3312 732 M 1592.8 649.6128 C 1604.8128 657.8432 1606.752 665.056 1615.2704 733.3312 C 1623.0848 795.9872 1623.0272 792.3904 1616.2368 788.4544 C 1602.8928 780.7168 1601.6704 776.4928 1592.6016 706.4128 C 1583.712 637.7216 1583.6928 643.3728 1592.8 649.6128 M 1696.4864 649.664 C 1696.224 651.3152 1694.5088 664.3648 1692.672 678.6688 C 1679.7824 778.9824 1680.4544 775.8528 1669.6256 785.3824 C 1658.0288 795.5968 1658.2336 799.36 1666.6304 731.552 C 1673.6064 675.2128 1675.3024 666.784 1681.4976 657.7664 C 1688.32 647.8336 1697.568 642.8416 1696.4864 649.664 M 1738.1248 650.2016 C 1751.2256 658.784 1752.1536 665.5744 1751.6992 749.3312 L 1751.3344 816.6656 L 1742.0032 816.6656 L 1732.6656 816.6656 L 1732.3264 732.3328 C 1732.0896 674.4832 1732.416 648 1733.3696 648 C 1734.1376 648 1736.2752 648.992 1738.1248 650.2016 M 1916 732.7296 L 1916 817.4528 L 1907.0016 817.0624 L 1898.0032 816.6656 L 1898.0032 743.3344 C 1898.0032 684.4224 1898.3616 668.9792 1899.84 664.7936 C 1901.6384 659.6864 1911.936 648 1914.6304 648 C 1915.552 648 1916 675.68 1916 732.7296 M 2152.0704 694.336 L 2140.5248 740.6656 L 2183.7952 741.0176 C 2207.5968 741.2096 2227.2576 741.184 2227.488 740.9536 C 2227.7184 740.7296 2223.7248 724.0704 2218.624 703.936 C 2205.1136 650.6304 2204.8256 649.4016 2205.664 648.5568 C 2206.752 647.4688 2213.312 651.8656 2217.728 656.64 C 2224.8256 664.3136 2225.7728 666.9504 2239.264 716.6656 C 2245.3312 739.008 2265.472 812.6528 2266.1632 815.0016 C 2266.7712 817.0752 2265.7472 817.3312 2256.9344 817.3312 L 2247.0208 817.3312 L 2239.1744 786.336 L 2231.3344 755.3344 L 2184.0064 755.3344 L 2136.672 755.3344 L 2129.0944 785.3312 C 2124.9216 801.8304 2121.472 815.7824 2121.4208 816.3328 C 2121.3248 817.4272 2103.5264 817.7472 2102.4512 816.6784 C 2101.344 815.5648 2140.9472 671.68 2143.9296 666.0032 C 2148.3456 657.5744 2157.792 648.2752 2162.1376 648.0704 C 2163.008 648.0256 2158.8928 666.9504 2152.0704 694.336 M 413.4976 785.664 C 415.1488 788.0512 420.5056 795.6992 425.3888 802.6688 C 433.952 814.8672 472.0192 869.4656 496.0384 904 C 506.4448 918.9504 543.9168 972.6464 554.6624 988 C 556.9664 991.3024 565.6064 1003.6032 573.856 1015.3344 C 582.1056 1027.0656 598.656 1050.7648 610.6432 1068 C 654.368 1130.8672 661.792 1141.3312 662.6688 1141.3312 C 663.5392 1141.3312 670.9632 1130.8672 714.688 1068 C 726.6752 1050.7648 743.232 1027.0656 751.4752 1015.3344 C 759.7248 1003.6032 768.3648 991.3024 770.6752 988 C 780.8576 973.4464 818.7328 919.1808 829.2992 904 C 860.0576 859.8016 894.8864 809.8816 904.1728 796.6848 C 916.416 779.2832 916.416 779.2896 903.104 787.6864 C 897.3632 791.3088 884.2688 799.52 874.0032 805.9328 C 863.7312 812.3392 842.1312 825.8496 826.0032 835.9488 C 698.5664 915.7312 663.2512 937.3312 661.3888 936.6208 C 659.584 935.9232 589.088 892.1344 499.3344 835.9488 C 483.2 825.8496 461.6 812.3392 451.3344 805.9328 C 441.0688 799.52 428.0512 791.36 422.4064 787.8016 C 410.2784 780.1536 409.5424 779.9744 413.4976 785.664 M 1651.9232 804 C 1651.6032 824.48 1632.6016 826.2144 1629.952 806.0032 L 1629.0752 799.3344 L 1640.5376 799.3344 L 1651.9936 799.3344 L 1651.9232 804 M 2038.6688 807.2384 C 2038.6688 825.4464 2020.5824 824.1984 2016.7104 805.728 L 2015.8144 801.4592 L 2024.9088 800.992 C 2029.9072 800.736 2035.0528 800.4032 2036.3328 800.2624 C 2038.304 800.0384 2038.6688 801.1328 2038.6688 807.2384" fill="#2d2d2d"/>
        </g>
        <g id="Graphic_3">
          <title>path1</title>
          <path d="M -15916157e-19 720 L -15916157e-19 1440 L 1280 1440 L 2560 1440 L 2560 720 L 2560 11368684e-20 L 1280 11368684e-20 L -15916157e-19 11368684e-20 L -15916157e-19 720 M 1271.9936 233.664 C 1271.9872 291.9424 1273.664 656.992 1276.3456 1181.6704 L 1276.6656 1244 L 1272.9984 1244 L 1269.3312 1244 L 1269.344 1172.3328 C 1269.3504 1114.7904 1267.5712 727.8528 1264.9856 223.6672 L 1264.6656 161.3312 L 1268.3328 161.3312 L 1272 161.3312 L 1271.9936 233.664 M 664.8064 300.9984 C 665.6 302.2848 673.6512 315.936 682.6944 331.3344 C 711.2256 379.9296 738.8736 427.0656 743.3088 434.6688 C 745.664 438.7008 754.656 454.0032 763.296 468.6656 C 771.9296 483.3344 786.0416 507.3344 794.6432 522.0032 C 823.456 571.1168 860.2496 633.76 875.7056 660 C 917.5744 731.1104 916.0832 728.3584 913.6128 730.048 C 911.2576 731.6608 897.0112 740.5696 749.664 832.5696 L 662.6624 886.8864 L 586.3296 839.2192 C 544.352 813.0048 488.4032 778.0672 462.0032 761.5872 C 435.6032 745.1072 412.9728 730.9184 411.7184 730.0544 C 409.248 728.3584 407.7504 731.1232 449.632 660 C 465.0816 633.76 501.8752 571.1168 530.688 522.0032 C 539.296 507.3344 553.4016 483.3344 562.0416 468.6656 C 570.6816 454.0032 579.6736 438.7008 582.0224 434.6688 C 586.4576 427.0656 614.1056 379.9296 642.6368 331.3344 C 662.2976 297.856 661.7984 298.6688 662.6688 298.6688 C 663.0464 298.6688 664.0128 299.7184 664.8064 300.9984 M 1572.4736 615.5136 C 1577.4144 617.8688 1582.656 625.7408 1582.688 630.848 C 1582.7136 636.1472 1584.2112 640 1586.2336 640 C 1590.0032 640 1600.9408 648.4224 1605.0624 654.496 C 1611.8976 664.5696 1612.8128 669.1264 1620.704 732.2432 C 1624.8576 765.4784 1628.544 792.9664 1628.9024 793.3312 C 1630.0928 794.5472 1649.9776 794.784 1651.7312 793.6 C 1652.896 792.8128 1655.84 773.3632 1660.7744 733.8816 C 1670.496 656.0384 1672.608 649.8048 1692.0128 641.4528 C 1697.6576 639.0272 1698.6688 638.0416 1698.6752 634.9632 C 1698.7264 608.3136 1729.856 605.504 1731.9744 631.9552 C 1732.608 639.84 1733.0048 640.7552 1736.5888 642.624 C 1743.5392 646.24 1749.2672 652.2624 1753.0112 659.8912 L 1756.6656 667.3344 L 1756.6656 744.6656 L 1756.6656 822.0032 L 1742.0032 822.0032 L 1727.3344 822.0032 L 1726.9888 733.152 L 1726.6496 644.3072 L 1718.2144 643.4048 C 1710.0928 642.5344 1702.6752 643.3664 1702.656 645.1456 C 1702.5728 653.4464 1686.1824 769.0496 1684.4096 773.8432 C 1681.2352 782.4128 1673.4912 791.0592 1665.6512 794.7712 C 1662.176 796.416 1659.1488 797.9008 1658.9184 798.0736 C 1658.6944 798.2464 1657.9392 802.368 1657.2544 807.2384 C 1653.7408 832.0384 1627.488 832.6464 1624.6848 808 C 1623.552 797.984 1622.656 796.5056 1617.024 795.264 C 1610.8096 793.9008 1600.896 783.2128 1597.5488 774.272 C 1595.552 768.928 1592.5632 749.9648 1587.3856 709.6832 C 1583.3536 678.3232 1579.7312 650.7776 1579.328 648.4672 C 1578.4192 643.2512 1574.8736 642.144 1563.1104 643.4048 L 1554.6688 644.3136 L 1554.6688 733.4912 L 1554.6688 822.6688 L 1539.9616 822.6688 L 1525.2544 822.6688 L 1525.6256 743.6672 L 1526.0032 664.6656 L 1529.696 657.6512 C 1533.1712 651.0592 1541.056 643.7824 1546.656 642.0032 C 1548.5632 641.3952 1549.1392 639.4304 1549.5552 632.0576 C 1550.4064 616.992 1560.4224 609.7664 1572.4736 615.5136 M 1939.2128 615.3664 C 1945.1392 617.8432 1948.8448 623.584 1950.016 632.1088 C 1950.7968 637.7792 1951.328 638.5984 1954.7264 639.3472 C 1977.1904 644.2816 1980.3584 650.7392 1998.816 729.12 C 2006.8672 763.3408 2013.7728 792.384 2014.1504 793.664 C 2014.8928 796.1536 2025.6064 796.9472 2034.5024 795.168 L 2038.6688 794.336 L 2038.6688 705.8304 L 2038.6688 617.3312 L 2054.0416 617.3312 L 2069.4144 617.3312 L 2069.0432 696.3328 L 2068.6656 775.3344 L 2065.1328 781.3312 C 2061.3376 787.776 2056.1792 792.768 2049.9136 796.0448 C 2046.4832 797.8432 2045.9008 799.0272 2045.184 805.6704 C 2042.336 831.9872 2017.1904 833.3312 2011.4496 807.4688 C 2010.2016 801.8496 2009.4016 800.704 2005.9904 799.68 C 1982.3808 792.544 1980.1792 787.9808 1961.6128 707.4624 C 1945.1584 636.096 1947.808 641.7728 1931.6736 643.3728 L 1922.688 644.2688 L 1922.3424 733.1328 L 1922.0032 822.0032 L 1907.3344 822.0032 L 1892.6656 822.0032 L 1892.6656 744.6656 L 1892.6656 667.3344 L 1895.8528 660.2752 C 1899.1232 653.0432 1907.6032 644.4864 1912.7872 643.1808 C 1915.2384 642.5664 1915.7504 641.2544 1916.3264 634.0544 C 1917.632 617.7472 1926.8672 610.208 1939.2128 615.3664 M 2190.7072 615.3536 C 2195.2896 617.7216 2198.5408 623.3728 2200.6656 632.6336 C 2202.08 638.8032 2202.7392 639.5904 2210.0928 643.84 C 2219.84 649.4848 2225.2544 655.3344 2229.792 665.1328 C 2232.736 671.488 2273.3312 817.056 2273.3312 821.248 C 2273.3312 822.1696 2267.9552 822.6688 2258.0608 822.6688 L 2242.7904 822.6688 L 2241.6 818.336 C 2240.9472 815.9488 2237.472 802.1504 2233.8752 787.6608 L 2227.3344 761.3248 L 2184.0768 761.664 L 2140.8192 762.0032 L 2133.3376 792 L 2125.8496 822.0032 L 2110.2592 822.3744 C 2101.6832 822.5792 2094.6688 822.2848 2094.6688 821.7152 C 2094.6688 821.1456 2097.376 810.7776 2100.6912 798.6752 C 2104 786.5728 2113.3056 752.4928 2121.3632 722.944 C 2139.3536 656.96 2140.8576 653.7088 2157.9072 643.84 C 2165.2608 639.5904 2165.92 638.8032 2167.3344 632.6336 C 2171.0848 616.288 2179.904 609.7664 2190.7072 615.3536 M 1838.6688 720.0448 L 1838.6688 822.7584 L 1824.3328 822.3808 L 1810.0032 822.0032 L 1809.6576 719.6672 L 1809.3184 617.3312 L 1823.9936 617.3312 L 1838.6688 617.3312 L 1838.6688 720.0448 M 1558.0096 622.656 C 1556.6592 624.1472 1555.3344 628.1984 1554.976 631.9168 L 1554.3424 638.528 L 1565.8304 638.2656 L 1577.3184 638.0032 L 1577.3248 634.4192 C 1577.3504 622.3808 1565.0432 614.8864 1558.0096 622.656 M 1708.1984 622.7584 C 1706.784 624.2752 1705.2608 627.3536 1704.8128 629.5936 C 1703.1232 638.0672 1703.0144 637.9776 1715.3408 638.2592 L 1726.6688 638.5152 L 1726.6688 632.1792 C 1726.6688 621.0752 1715.2128 615.2384 1708.1984 622.7584 M 1925.3824 622.9184 C 1923.4368 625.0048 1922.6688 627.6416 1922.6688 632.1792 L 1922.6688 638.5152 L 1933.9904 638.2592 L 1945.312 638.0032 L 1944.48 633.3312 C 1943.3728 627.1424 1940.6016 621.8496 1937.9392 620.8256 C 1933.5232 619.136 1928.064 620.0448 1925.3824 622.9184 M 2176.992 623.0208 C 2175.232 625.7088 2172.032 634.9696 2172.0064 637.4464 C 2172.0064 637.8752 2177.4272 638.2208 2184.0576 638.2208 L 2196.1152 638.2208 L 2195.2704 634.112 C 2192.5952 621.0496 2182.3552 614.8352 2176.992 623.0208 M 1815.2768 624.3328 C 1814.9312 625.248 1814.7968 668.9024 1814.9888 721.3312 L 1815.3344 816.6656 L 1824.3328 817.0624 L 1833.3312 817.4528 L 1833.3312 720.064 L 1833.3312 622.6688 L 1824.6272 622.6688 C 1818.8864 622.6688 1815.6992 623.232 1815.2768 624.3328 M 2045.3312 707.3472 L 2045.3312 792.1536 L 2049.4784 789.7408 C 2063.968 781.3312 2064.0832 780.5696 2063.68 695.8144 L 2063.3344 623.3344 L 2054.336 622.9376 L 2045.3312 622.5472 L 2045.3312 707.3472 M 2175.4112 643.808 L 2170.1568 644.6656 L 2159.1168 688.6656 C 2153.0432 712.864 2148.0576 733.4144 2148.0384 734.336 C 2148.0064 735.6288 2156.0704 736 2184 736 C 2211.8976 736 2220.0064 735.6224 2220.032 734.336 C 2220.0768 731.8144 2198.4128 646.1312 2197.4784 645.1328 C 2196.192 643.7696 2181.2032 642.8672 2175.4112 643.808 M 1953.3312 645.9008 C 1953.3312 646.9184 1972.2816 729.4528 1977.9712 753.216 C 1983.9808 778.3104 1995.3792 794.5216 2007.104 794.656 C 2008.4928 794.6688 2008.2368 793.4272 1998.1696 750.6688 C 1996.3584 742.9696 1991.4368 721.9648 1987.2384 704 C 1977.984 664.4352 1972.3328 651.8912 1962.0032 648.0192 C 1956.4416 645.9392 1953.3312 645.1776 1953.3312 645.9008 M 1543.0464 650.5472 C 1539.9424 652.7936 1536.352 657.1392 1534.5088 660.8832 L 1531.3344 667.3344 L 1530.9696 742.336 L 1530.6048 817.3312 L 1539.968 817.3312 L 1549.3312 817.3312 L 1549.3312 732 C 1549.3312 685.0688 1549.1264 646.6688 1548.864 646.6688 C 1548.608 646.6688 1545.9904 648.4096 1543.0464 650.5472 M 1585.3312 648.4608 C 1585.3312 653.1392 1600.0448 763.2192 1601.2864 767.8336 C 1603.9168 777.6 1618.6432 794.0224 1621.7408 790.6496 C 1622.8224 789.472 1608.2496 676.8256 1606.1312 669.984 C 1601.9392 656.448 1585.3312 639.2576 1585.3312 648.4608 M 1688.8384 649.4336 C 1676.7616 658.9312 1674.6496 666.7456 1666.6304 731.552 C 1658.2336 799.36 1658.0288 795.5968 1669.6256 785.3824 C 1680.4544 775.8528 1679.7824 778.9824 1692.672 678.6688 C 1694.5088 664.3648 1696.224 651.3152 1696.4864 649.664 C 1697.1072 645.7728 1693.6256 645.6704 1688.8384 649.4336 M 1732.3264 732.3328 L 1732.6656 816.6656 L 1742.0032 816.6656 L 1751.3344 816.6656 L 1751.6992 749.3312 C 1752.1024 674.8672 1751.5584 667.0528 1745.376 658.0608 C 1741.5744 652.5376 1736.16 648 1733.3696 648 C 1732.416 648 1732.0896 674.4832 1732.3264 732.3328 M 1907.4688 653.792 C 1897.7536 663.5072 1898.0032 661.1776 1898.0032 743.3344 L 1898.0032 816.6656 L 1907.0016 817.0624 L 1916 817.4528 L 1916 732.7296 C 1916 675.68 1915.552 648 1914.6304 648 C 1913.8816 648 1910.656 650.6048 1907.4688 653.792 M 2157.3312 650.3808 C 2152.4992 653.6384 2147.136 659.8848 2143.9296 666.0032 C 2140.9472 671.68 2101.344 815.5648 2102.4512 816.6784 C 2103.5264 817.7472 2121.3248 817.4272 2121.4208 816.3328 C 2121.472 815.7824 2124.9216 801.8304 2129.0944 785.3312 L 2136.672 755.3344 L 2184.0064 755.3344 L 2231.3344 755.3344 L 2239.1744 786.336 L 2247.0208 817.3312 L 2256.9344 817.3312 C 2265.7472 817.3312 2266.7712 817.0752 2266.1632 815.0016 C 2265.472 812.6528 2245.3312 739.008 2239.264 716.6656 C 2225.7728 666.9504 2224.8256 664.3136 2217.728 656.64 C 2213.312 651.8656 2206.752 647.4688 2205.664 648.5568 C 2204.8256 649.4016 2205.1136 650.6304 2218.624 703.936 C 2223.7248 724.0704 2227.7184 740.7296 2227.488 740.9536 C 2227.2576 741.184 2207.5968 741.2096 2183.7952 741.0176 L 2140.5248 740.6656 L 2152.0704 694.336 C 2158.8928 666.9504 2163.008 648.0256 2162.1376 648.0704 C 2161.3312 648.1088 2159.168 649.152 2157.3312 650.3808 M 422.4064 787.8016 C 428.0512 791.36 441.0688 799.52 451.3344 805.9328 C 461.6 812.3392 483.2 825.8496 499.3344 835.9488 C 589.088 892.1344 659.584 935.9232 661.3888 936.6208 C 663.2512 937.3312 698.5664 915.7312 826.0032 835.9488 C 842.1312 825.8496 863.7312 812.3392 874.0032 805.9328 C 884.2688 799.52 897.3632 791.3088 903.104 787.6864 C 916.416 779.2896 916.416 779.2832 904.1728 796.6848 C 894.8864 809.8816 860.0576 859.8016 829.2992 904 C 818.7328 919.1808 780.8576 973.4464 770.6752 988 C 768.3648 991.3024 759.7248 1003.6032 751.4752 1015.3344 C 743.232 1027.0656 726.6752 1050.7648 714.688 1068 C 670.9632 1130.8672 663.5392 1141.3312 662.6688 1141.3312 C 661.792 1141.3312 654.368 1130.8672 610.6432 1068 C 598.656 1050.7648 582.1056 1027.0656 573.856 1015.3344 C 565.6064 1003.6032 556.9664 991.3024 554.6624 988 C 543.9168 972.6464 506.4448 918.9504 496.0384 904 C 472.0192 869.4656 433.952 814.8672 425.3888 802.6688 C 410.8416 781.92 410.4512 781.3312 411.3152 781.3312 C 411.776 781.3312 416.7616 784.2432 422.4064 787.8016 M 1629.952 806.0032 C 1632.6016 826.2144 1651.6032 824.48 1651.9232 804 L 1651.9936 799.3344 L 1640.5376 799.3344 L 1629.0752 799.3344 L 1629.952 806.0032 M 2024.9088 800.992 L 2015.8144 801.4592 L 2016.7104 805.728 C 2019.456 818.8032 2029.0816 824.0576 2036.576 816.5696 C 2039.7248 813.4144 2039.5264 799.904 2036.3328 800.2624 C 2035.0528 800.4032 2029.9072 800.736 2024.9088 800.992" fill="#222"/>
        </g>
      </g>
    </g>
  </g>
</svg>
