<?xml version="1.0" encoding="UTF-8" standalone="no"?>
<!DOCTYPE svg PUBLIC "-//W3C//DTD SVG 1.1//EN" "http://www.w3.org/Graphics/SVG/1.1/DTD/svg11.dtd">
<svg xmlns="http://www.w3.org/2000/svg" xmlns:xl="http://www.w3.org/1999/xlink" xmlns:dc="http://purl.org/dc/elements/1.1/" version="1.1" viewBox="0 0 2560 1440" width="1280" height="720">
  <defs/>
  <g id="Canvas_1" fill-opacity="1" stroke-dasharray="none" stroke-opacity="1" stroke="none" fill="none">
    <title>Canvas 1</title>
    <g id="Canvas_1: Layer 1">
      <title>Layer 1</title>
      <g id="Group_2">
        <title>svgg</title>
        <g id="Graphic_4">
          <title>path0</title>
          <path d="M 1264.9728 222.336 C 1268.3392 889.8688 1269.3504 1109.2288 1269.344 1170.336 L 1269.3312 1244 L 1272.9984 1244 L 1276.6656 1244 L 1276.3584 1183.0016 C 1272.9984 515.4624 1271.9872 296.1024 1271.9936 235.0016 L 1272 161.3312 L 1268.3328 161.3312 L 1264.6656 161.3312 L 1264.9728 222.336 M 660.5248 300.9984 C 659.7312 302.2848 651.6928 315.936 642.656 331.3344 C 633.6256 346.7328 617.248 374.6304 606.2592 393.3312 C 595.2768 412.032 584.3648 430.6304 582.016 434.6688 C 579.6672 438.7008 570.6816 454.0032 562.0416 468.6656 C 553.4016 483.3344 539.3024 507.3344 530.7072 522.0032 C 522.112 536.6656 509.792 557.664 503.328 568.6656 C 473.0368 620.224 463.872 635.8208 449.632 660 C 407.7824 731.072 409.248 728.3584 411.7184 730.0608 C 414.1504 731.7376 462.4896 761.9776 505.3312 788.6208 C 519.6352 797.5168 560.8832 823.2576 597.0048 845.8304 L 662.6752 886.8736 L 744.3392 835.8464 C 789.2544 807.7824 830.5024 782.0352 836 778.6304 C 855.9616 766.2784 911.392 731.5904 913.6128 730.0608 C 916.0832 728.3584 917.5552 731.072 875.6992 660 C 861.4656 635.8208 852.2944 620.224 822.0032 568.6656 C 815.5392 557.664 803.2192 536.6656 794.624 522.0032 C 786.0288 507.3344 771.9296 483.3344 763.296 468.6656 C 754.656 454.0032 745.664 438.7008 743.3152 434.6688 C 740.9664 430.6304 730.0608 412.032 719.072 393.3312 C 708.0832 374.6304 691.7056 346.7328 682.6752 331.3344 C 663.072 297.9072 663.5392 298.6688 662.6688 298.6688 C 662.2848 298.6688 661.3248 299.7184 660.5248 300.9984 M 1698.0032 429.8496 C 1693.2672 431.9296 1690.8608 434.4704 1628.6656 503.072 C 1573.7664 563.6288 1573.0496 564.7168 1583.6288 571.648 C 1588.5504 574.8736 2101.4592 575.3536 2109.0752 572.1408 C 2113.2544 570.3808 2222.2144 452.0512 2226.2848 444.864 C 2228.7808 440.448 2228.3072 436.5056 2224.7808 432.4096 L 2221.5616 428.6656 L 1961.7792 428.3776 C 1749.2928 428.1472 1701.2736 428.416 1698.0032 429.8496 M 1582.9312 650.7008 C 1579.3024 654.0864 1577.92 659.3088 1579.6544 663.0976 C 1581.9328 668.0832 1691.8336 788.5376 1696.3456 791.0016 C 1701.6576 793.8944 2215.5328 794.7072 2221.8496 791.8272 C 2225.792 790.0288 2228.608 783.9424 2227.52 779.5904 C 2226.4576 775.3792 2115.776 653.2864 2110.336 650.336 C 2103.0784 646.3872 1587.1744 646.752 1582.9312 650.7008 M 413.4976 785.664 C 415.1488 788.0512 420.5056 795.6992 425.3888 802.6688 C 433.952 814.8672 472.0192 869.4656 496.0384 904 C 506.4448 918.9504 543.9168 972.6464 554.6624 988 C 556.9664 991.3024 565.6064 1003.6032 573.856 1015.3344 C 582.1056 1027.0656 598.656 1050.7648 610.6432 1068 C 654.368 1130.8672 661.792 1141.3312 662.6688 1141.3312 C 663.5392 1141.3312 670.9632 1130.8672 714.688 1068 C 726.6752 1050.7648 743.232 1027.0656 751.4752 1015.3344 C 759.7248 1003.6032 768.3648 991.3024 770.6752 988 C 780.8576 973.4464 818.7328 919.1808 829.2992 904 C 860.0576 859.8016 894.8864 809.8816 904.1728 796.6848 C 916.416 779.2832 916.416 779.2896 903.104 787.6864 C 897.3632 791.3088 884.2688 799.52 874.0032 805.9328 C 863.7312 812.3392 842.1312 825.8432 826.0032 835.9424 C 726.1248 898.432 698.784 915.4816 675.6672 929.696 L 662.6688 937.6896 L 649.664 929.696 C 626.5472 915.4816 599.2128 898.432 499.3344 835.9424 C 483.2 825.8432 461.6 812.3392 451.3344 805.9328 C 441.0688 799.52 428.0512 791.36 422.4064 787.8016 C 410.2784 780.1536 409.5424 779.9744 413.4976 785.664 M 1699.3344 868.608 C 1696.4032 869.7216 1693.8944 870.6368 1693.7664 870.6496 C 1692.928 870.72 1581.6832 994.176 1580.3776 996.4736 C 1577.8816 1000.8832 1578.3616 1004.8256 1581.8816 1008.928 L 1585.1008 1012.6656 L 1846.4512 1012.6656 L 2107.8016 1012.6656 L 2111.5712 1009.888 C 2117.7728 1005.312 2226.6176 884.9152 2227.488 881.664 C 2228.7168 877.0624 2226.9824 872.2688 2223.1872 869.7856 C 2218.176 866.496 1707.9424 865.3568 1699.3344 868.608" fill="#2d2d2d"/>
        </g>
        <g id="Graphic_3">
          <title>path1</title>
          <path d="M 0 720 L 0 1440 L 1280 1440 L 2560 1440 L 2560 720 L 2560 0 L 1280 0 L 0 0 L 0 720 M 1271.9936 235.0016 C 1271.9872 296.1024 1272.9984 515.4624 1276.3584 1183.0016 L 1276.6656 1244 L 1272.9984 1244 L 1269.3312 1244 L 1269.344 1170.336 C 1269.3504 1109.2288 1268.3392 889.8688 1264.9728 222.336 L 1264.6656 161.3312 L 1268.3328 161.3312 L 1272 161.3312 L 1271.9936 235.0016 M 664.8064 300.9984 C 665.6 302.2848 673.6448 315.936 682.6752 331.3344 C 691.7056 346.7328 708.0832 374.6304 719.072 393.3312 C 730.0608 412.032 740.9664 430.6304 743.3152 434.6688 C 745.664 438.7008 754.656 454.0032 763.296 468.6656 C 771.9296 483.3344 786.0288 507.3344 794.624 522.0032 C 803.2192 536.6656 815.5392 557.664 822.0032 568.6656 C 852.2944 620.224 861.4656 635.8208 875.6992 660 C 917.5552 731.072 916.0832 728.3584 913.6128 730.0608 C 911.392 731.5904 855.9616 766.2784 836 778.6304 C 830.5024 782.0352 789.2544 807.7824 744.3392 835.8464 L 662.6752 886.8736 L 597.0048 845.8304 C 560.8832 823.2576 519.6352 797.5168 505.3312 788.6208 C 462.4896 761.9776 414.1504 731.7376 411.7184 730.0608 C 409.248 728.3584 407.7824 731.072 449.632 660 C 463.872 635.8208 473.0368 620.224 503.328 568.6656 C 509.792 557.664 522.112 536.6656 530.7072 522.0032 C 539.3024 507.3344 553.4016 483.3344 562.0416 468.6656 C 570.6816 454.0032 579.6672 438.7008 582.016 434.6688 C 584.3648 430.6304 595.2768 412.032 606.2592 393.3312 C 617.248 374.6304 633.6256 346.7328 642.656 331.3344 C 662.2656 297.9072 661.7984 298.6688 662.6688 298.6688 C 663.0464 298.6688 664.0128 299.7184 664.8064 300.9984 M 2224.7808 432.4096 C 2228.3072 436.5056 2228.7808 440.448 2226.2848 444.864 C 2222.2144 452.0512 2113.2544 570.3808 2109.0752 572.1408 C 2101.4592 575.3536 1588.5504 574.8736 1583.6288 571.648 C 1573.0496 564.7168 1573.7664 563.6288 1628.6656 503.072 C 1690.8608 434.4704 1693.2672 431.9296 1698.0032 429.8496 C 1701.2736 428.416 1749.2928 428.1472 1961.7792 428.3776 L 2221.5616 428.6656 L 2224.7808 432.4096 M 2110.336 650.336 C 2115.776 653.2864 2226.4576 775.3792 2227.52 779.5904 C 2228.608 783.9424 2225.792 790.0288 2221.8496 791.8272 C 2215.5328 794.7072 1701.6576 793.8944 1696.3456 791.0016 C 1691.8336 788.5376 1581.9328 668.0832 1579.6544 663.0976 C 1577.92 659.3088 1579.3024 654.0864 1582.9312 650.7008 C 1587.1744 646.752 2103.0784 646.3872 2110.336 650.336 M 422.4064 787.8016 C 428.0512 791.36 441.0688 799.52 451.3344 805.9328 C 461.6 812.3392 483.2 825.8432 499.3344 835.9424 C 599.2128 898.432 626.5472 915.4816 649.664 929.696 L 662.6688 937.6896 L 675.6672 929.696 C 698.784 915.4816 726.1248 898.432 826.0032 835.9424 C 842.1312 825.8432 863.7312 812.3392 874.0032 805.9328 C 884.2688 799.52 897.3632 791.3088 903.104 787.6864 C 916.416 779.2896 916.416 779.2832 904.1728 796.6848 C 894.8864 809.8816 860.0576 859.8016 829.2992 904 C 818.7328 919.1808 780.8576 973.4464 770.6752 988 C 768.3648 991.3024 759.7248 1003.6032 751.4752 1015.3344 C 743.232 1027.0656 726.6752 1050.7648 714.688 1068 C 670.9632 1130.8672 663.5392 1141.3312 662.6688 1141.3312 C 661.792 1141.3312 654.368 1130.8672 610.6432 1068 C 598.656 1050.7648 582.1056 1027.0656 573.856 1015.3344 C 565.6064 1003.6032 556.9664 991.3024 554.6624 988 C 543.9168 972.6464 506.4448 918.9504 496.0384 904 C 472.0192 869.4656 433.952 814.8672 425.3888 802.6688 C 410.8416 781.92 410.4512 781.3312 411.3152 781.3312 C 411.776 781.3312 416.7616 784.2432 422.4064 787.8016 M 2223.1872 869.7856 C 2226.9824 872.2688 2228.7168 877.0624 2227.488 881.664 C 2226.6176 884.9152 2117.7728 1005.312 2111.5712 1009.888 L 2107.8016 1012.6656 L 1846.4512 1012.6656 L 1585.1008 1012.6656 L 1581.8816 1008.928 C 1578.3616 1004.8256 1577.8816 1000.8832 1580.3776 996.4736 C 1581.6832 994.176 1692.928 870.72 1693.7664 870.6496 C 1693.8944 870.6368 1696.4032 869.7216 1699.3344 868.608 C 1707.9424 865.3568 2218.176 866.496 2223.1872 869.7856" fill="#222"/>
        </g>
      </g>
    </g>
  </g>
</svg>
